G04 #@! TF.GenerationSoftware,KiCad,Pcbnew,5.0.1*
G04 #@! TF.CreationDate,2019-03-03T01:18:44-08:00*
G04 #@! TF.ProjectId,piboard,7069626F6172642E6B696361645F7063,rev?*
G04 #@! TF.SameCoordinates,Original*
G04 #@! TF.FileFunction,Legend,Top*
G04 #@! TF.FilePolarity,Positive*
%FSLAX46Y46*%
G04 Gerber Fmt 4.6, Leading zero omitted, Abs format (unit mm)*
G04 Created by KiCad (PCBNEW 5.0.1) date Sun 03 Mar 2019 01:18:44 AM PST*
%MOMM*%
%LPD*%
G01*
G04 APERTURE LIST*
%ADD10C,0.200000*%
%ADD11C,0.150000*%
%ADD12C,0.120000*%
G04 APERTURE END LIST*
D10*
X16500000Y-134500000D02*
X16500000Y-14500000D01*
X71500000Y-14500000D02*
X71500000Y-134500000D01*
X16500000Y-14500000D02*
X71500000Y-14500000D01*
X16500000Y-44500000D02*
X71500000Y-44500000D01*
X16500000Y-74500000D02*
X71500000Y-74500000D01*
X16500000Y-104500000D02*
X71500000Y-104500000D01*
X16500000Y-134500000D02*
X71500000Y-134500000D01*
D11*
G04 #@! TO.C,J6*
X43940000Y-69100000D02*
X52240000Y-69100000D01*
X43940000Y-67900000D02*
X43940000Y-69100000D01*
X52240000Y-67900000D02*
X43940000Y-67900000D01*
X52240000Y-69100000D02*
X52240000Y-67900000D01*
G04 #@! TO.C,J3*
X32860000Y-174650000D02*
X32860000Y-157950000D01*
X16710000Y-174650000D02*
X32860000Y-174650000D01*
X16710000Y-157950000D02*
X16710000Y-174650000D01*
X32860000Y-157950000D02*
X16710000Y-157950000D01*
G04 #@! TO.C,J1*
X32860000Y-154650000D02*
X32860000Y-137950000D01*
X16710000Y-154650000D02*
X32860000Y-154650000D01*
X16710000Y-137950000D02*
X16710000Y-154650000D01*
X32860000Y-137950000D02*
X16710000Y-137950000D01*
G04 #@! TO.C,J5*
X71305000Y-138075001D02*
X55155000Y-138075001D01*
X55155000Y-138075001D02*
X55155000Y-154775001D01*
X55155000Y-154775001D02*
X71305000Y-154775001D01*
X71305000Y-154775001D02*
X71305000Y-138075001D01*
G04 #@! TO.C,J8*
X43940000Y-129100000D02*
X52240000Y-129100000D01*
X43940000Y-127900000D02*
X43940000Y-129100000D01*
X52240000Y-127900000D02*
X43940000Y-127900000D01*
X52240000Y-129100000D02*
X52240000Y-127900000D01*
G04 #@! TO.C,J2*
X43940000Y-39100000D02*
X52240000Y-39100000D01*
X43940000Y-37900000D02*
X43940000Y-39100000D01*
X52240000Y-37900000D02*
X43940000Y-37900000D01*
X52240000Y-39100000D02*
X52240000Y-37900000D01*
G04 #@! TO.C,J4*
X52240000Y-99100000D02*
X52240000Y-97900000D01*
X52240000Y-97900000D02*
X43940000Y-97900000D01*
X43940000Y-97900000D02*
X43940000Y-99100000D01*
X43940000Y-99100000D02*
X52240000Y-99100000D01*
D12*
G04 #@! TO.C,J13*
X24000000Y-179300000D02*
X24300000Y-178700000D01*
X24300000Y-178700000D02*
X23700000Y-178700000D01*
X23700000Y-178700000D02*
X24000000Y-179300000D01*
X17135000Y-179705000D02*
X26145000Y-179705000D01*
X26145000Y-179705000D02*
X26145000Y-177855000D01*
X26145000Y-177855000D02*
X29345000Y-177855000D01*
X29345000Y-177855000D02*
X29345000Y-179705000D01*
X29345000Y-179705000D02*
X38355000Y-179705000D01*
X38355000Y-179705000D02*
X38355000Y-191385000D01*
X38355000Y-191385000D02*
X17135000Y-191385000D01*
X17135000Y-191385000D02*
X17135000Y-179705000D01*
D11*
G04 #@! TO.C,J7*
X71290000Y-174650000D02*
X71290000Y-157950000D01*
X55140000Y-174650000D02*
X71290000Y-174650000D01*
X55140000Y-157950000D02*
X55140000Y-174650000D01*
X71290000Y-157950000D02*
X55140000Y-157950000D01*
G04 #@! TO.C,J14*
X22700000Y-57900000D02*
X22700000Y-61300000D01*
X24300000Y-57900000D02*
X22700000Y-57900000D01*
X24300000Y-61300000D02*
X24300000Y-57900000D01*
X22700000Y-61300000D02*
X24300000Y-61300000D01*
G04 #@! TO.C,J15*
X22700000Y-91300000D02*
X24300000Y-91300000D01*
X24300000Y-91300000D02*
X24300000Y-87900000D01*
X24300000Y-87900000D02*
X22700000Y-87900000D01*
X22700000Y-87900000D02*
X22700000Y-91300000D01*
G04 #@! TO.C,J16*
X22700000Y-117900000D02*
X22700000Y-121300000D01*
X24300000Y-117900000D02*
X22700000Y-117900000D01*
X24300000Y-121300000D02*
X24300000Y-117900000D01*
X22700000Y-121300000D02*
X24300000Y-121300000D01*
G04 #@! TO.C,J17*
X22700000Y-31300000D02*
X24300000Y-31300000D01*
X24300000Y-31300000D02*
X24300000Y-27900000D01*
X24300000Y-27900000D02*
X22700000Y-27900000D01*
X22700000Y-27900000D02*
X22700000Y-31300000D01*
G04 #@! TD*
M02*
