G04 #@! TF.GenerationSoftware,KiCad,Pcbnew,5.0.1*
G04 #@! TF.CreationDate,2019-03-03T01:18:44-08:00*
G04 #@! TF.ProjectId,piboard,7069626F6172642E6B696361645F7063,rev?*
G04 #@! TF.SameCoordinates,Original*
G04 #@! TF.FileFunction,Soldermask,Bot*
G04 #@! TF.FilePolarity,Negative*
%FSLAX46Y46*%
G04 Gerber Fmt 4.6, Leading zero omitted, Abs format (unit mm)*
G04 Created by KiCad (PCBNEW 5.0.1) date Sun 03 Mar 2019 01:18:44 AM PST*
%MOMM*%
%LPD*%
G01*
G04 APERTURE LIST*
%ADD10C,0.100000*%
G04 APERTURE END LIST*
D10*
G36*
X31842527Y-182988736D02*
X31942410Y-183008604D01*
X32224674Y-183125521D01*
X32478705Y-183295259D01*
X32694741Y-183511295D01*
X32864479Y-183765326D01*
X32981396Y-184047590D01*
X33041000Y-184347240D01*
X33041000Y-184652760D01*
X32981396Y-184952410D01*
X32864479Y-185234674D01*
X32694741Y-185488705D01*
X32478705Y-185704741D01*
X32224674Y-185874479D01*
X31983162Y-185974516D01*
X31961553Y-185986066D01*
X31942611Y-186001612D01*
X31927065Y-186020554D01*
X31915514Y-186042165D01*
X31908401Y-186065614D01*
X31905999Y-186090000D01*
X31908401Y-186114386D01*
X31915514Y-186137835D01*
X31927065Y-186159446D01*
X31942611Y-186178388D01*
X31961553Y-186193934D01*
X31983162Y-186205484D01*
X32224674Y-186305521D01*
X32478705Y-186475259D01*
X32694741Y-186691295D01*
X32864479Y-186945326D01*
X32981396Y-187227590D01*
X33041000Y-187527240D01*
X33041000Y-187832760D01*
X32981396Y-188132410D01*
X32864479Y-188414674D01*
X32694741Y-188668705D01*
X32478705Y-188884741D01*
X32224674Y-189054479D01*
X31942410Y-189171396D01*
X31842527Y-189191264D01*
X31642762Y-189231000D01*
X31337238Y-189231000D01*
X31137473Y-189191264D01*
X31037590Y-189171396D01*
X30755326Y-189054479D01*
X30501295Y-188884741D01*
X30285259Y-188668705D01*
X30115521Y-188414674D01*
X29998604Y-188132410D01*
X29939000Y-187832760D01*
X29939000Y-187527240D01*
X29998604Y-187227590D01*
X30115521Y-186945326D01*
X30285259Y-186691295D01*
X30501295Y-186475259D01*
X30755326Y-186305521D01*
X30996838Y-186205484D01*
X31018447Y-186193934D01*
X31037389Y-186178388D01*
X31052935Y-186159446D01*
X31064486Y-186137835D01*
X31071599Y-186114386D01*
X31074001Y-186090000D01*
X31071599Y-186065614D01*
X31064486Y-186042165D01*
X31052935Y-186020554D01*
X31037389Y-186001612D01*
X31018447Y-185986066D01*
X30996838Y-185974516D01*
X30755326Y-185874479D01*
X30501295Y-185704741D01*
X30285259Y-185488705D01*
X30115521Y-185234674D01*
X29998604Y-184952410D01*
X29939000Y-184652760D01*
X29939000Y-184347240D01*
X29998604Y-184047590D01*
X30115521Y-183765326D01*
X30285259Y-183511295D01*
X30501295Y-183295259D01*
X30755326Y-183125521D01*
X31037590Y-183008604D01*
X31137473Y-182988736D01*
X31337238Y-182949000D01*
X31642762Y-182949000D01*
X31842527Y-182988736D01*
X31842527Y-182988736D01*
G37*
G36*
X25551000Y-189231000D02*
X22449000Y-189231000D01*
X22449000Y-182949000D01*
X25551000Y-182949000D01*
X25551000Y-189231000D01*
X25551000Y-189231000D01*
G37*
G36*
X36838252Y-182277818D02*
X36838254Y-182277819D01*
X36838255Y-182277819D01*
X37211513Y-182432427D01*
X37211514Y-182432428D01*
X37547439Y-182656886D01*
X37833114Y-182942561D01*
X37833116Y-182942564D01*
X38057573Y-183278487D01*
X38064520Y-183295259D01*
X38212182Y-183651748D01*
X38291000Y-184047993D01*
X38291000Y-184452007D01*
X38251068Y-184652760D01*
X38212181Y-184848255D01*
X38057573Y-185221513D01*
X38057572Y-185221514D01*
X37833114Y-185557439D01*
X37547439Y-185843114D01*
X37547436Y-185843116D01*
X37211513Y-186067573D01*
X36838255Y-186222181D01*
X36838254Y-186222181D01*
X36838252Y-186222182D01*
X36442007Y-186301000D01*
X36037993Y-186301000D01*
X35641748Y-186222182D01*
X35641746Y-186222181D01*
X35641745Y-186222181D01*
X35268487Y-186067573D01*
X34932564Y-185843116D01*
X34932561Y-185843114D01*
X34646886Y-185557439D01*
X34422428Y-185221514D01*
X34422427Y-185221513D01*
X34267819Y-184848255D01*
X34228933Y-184652760D01*
X34189000Y-184452007D01*
X34189000Y-184047993D01*
X34267818Y-183651748D01*
X34415480Y-183295259D01*
X34422427Y-183278487D01*
X34646884Y-182942564D01*
X34646886Y-182942561D01*
X34932561Y-182656886D01*
X35268486Y-182432428D01*
X35268487Y-182432427D01*
X35641745Y-182277819D01*
X35641746Y-182277819D01*
X35641748Y-182277818D01*
X36037993Y-182199000D01*
X36442007Y-182199000D01*
X36838252Y-182277818D01*
X36838252Y-182277818D01*
G37*
G36*
X19848252Y-182277818D02*
X19848254Y-182277819D01*
X19848255Y-182277819D01*
X20221513Y-182432427D01*
X20221514Y-182432428D01*
X20557439Y-182656886D01*
X20843114Y-182942561D01*
X20843116Y-182942564D01*
X21067573Y-183278487D01*
X21074520Y-183295259D01*
X21222182Y-183651748D01*
X21301000Y-184047993D01*
X21301000Y-184452007D01*
X21261068Y-184652760D01*
X21222181Y-184848255D01*
X21067573Y-185221513D01*
X21067572Y-185221514D01*
X20843114Y-185557439D01*
X20557439Y-185843114D01*
X20557436Y-185843116D01*
X20221513Y-186067573D01*
X19848255Y-186222181D01*
X19848254Y-186222181D01*
X19848252Y-186222182D01*
X19452007Y-186301000D01*
X19047993Y-186301000D01*
X18651748Y-186222182D01*
X18651746Y-186222181D01*
X18651745Y-186222181D01*
X18278487Y-186067573D01*
X17942564Y-185843116D01*
X17942561Y-185843114D01*
X17656886Y-185557439D01*
X17432428Y-185221514D01*
X17432427Y-185221513D01*
X17277819Y-184848255D01*
X17238933Y-184652760D01*
X17199000Y-184452007D01*
X17199000Y-184047993D01*
X17277818Y-183651748D01*
X17425480Y-183295259D01*
X17432427Y-183278487D01*
X17656884Y-182942564D01*
X17656886Y-182942561D01*
X17942561Y-182656886D01*
X18278486Y-182432428D01*
X18278487Y-182432427D01*
X18651745Y-182277819D01*
X18651746Y-182277819D01*
X18651748Y-182277818D01*
X19047993Y-182199000D01*
X19452007Y-182199000D01*
X19848252Y-182277818D01*
X19848252Y-182277818D01*
G37*
G36*
X64083643Y-172619781D02*
X64229415Y-172680162D01*
X64360611Y-172767824D01*
X64472176Y-172879389D01*
X64559838Y-173010585D01*
X64620219Y-173156357D01*
X64651000Y-173311107D01*
X64651000Y-173468893D01*
X64620219Y-173623643D01*
X64559838Y-173769415D01*
X64472176Y-173900611D01*
X64360611Y-174012176D01*
X64229415Y-174099838D01*
X64083643Y-174160219D01*
X63928893Y-174191000D01*
X63771107Y-174191000D01*
X63616357Y-174160219D01*
X63470585Y-174099838D01*
X63339389Y-174012176D01*
X63227824Y-173900611D01*
X63140162Y-173769415D01*
X63079781Y-173623643D01*
X63049000Y-173468893D01*
X63049000Y-173311107D01*
X63079781Y-173156357D01*
X63140162Y-173010585D01*
X63227824Y-172879389D01*
X63339389Y-172767824D01*
X63470585Y-172680162D01*
X63616357Y-172619781D01*
X63771107Y-172589000D01*
X63928893Y-172589000D01*
X64083643Y-172619781D01*
X64083643Y-172619781D01*
G37*
G36*
X61543643Y-172619781D02*
X61689415Y-172680162D01*
X61820611Y-172767824D01*
X61932176Y-172879389D01*
X62019838Y-173010585D01*
X62080219Y-173156357D01*
X62111000Y-173311107D01*
X62111000Y-173468893D01*
X62080219Y-173623643D01*
X62019838Y-173769415D01*
X61932176Y-173900611D01*
X61820611Y-174012176D01*
X61689415Y-174099838D01*
X61543643Y-174160219D01*
X61388893Y-174191000D01*
X61231107Y-174191000D01*
X61076357Y-174160219D01*
X60930585Y-174099838D01*
X60799389Y-174012176D01*
X60687824Y-173900611D01*
X60600162Y-173769415D01*
X60539781Y-173623643D01*
X60509000Y-173468893D01*
X60509000Y-173311107D01*
X60539781Y-173156357D01*
X60600162Y-173010585D01*
X60687824Y-172879389D01*
X60799389Y-172767824D01*
X60930585Y-172680162D01*
X61076357Y-172619781D01*
X61231107Y-172589000D01*
X61388893Y-172589000D01*
X61543643Y-172619781D01*
X61543643Y-172619781D01*
G37*
G36*
X66623643Y-172619781D02*
X66769415Y-172680162D01*
X66900611Y-172767824D01*
X67012176Y-172879389D01*
X67099838Y-173010585D01*
X67160219Y-173156357D01*
X67191000Y-173311107D01*
X67191000Y-173468893D01*
X67160219Y-173623643D01*
X67099838Y-173769415D01*
X67012176Y-173900611D01*
X66900611Y-174012176D01*
X66769415Y-174099838D01*
X66623643Y-174160219D01*
X66468893Y-174191000D01*
X66311107Y-174191000D01*
X66156357Y-174160219D01*
X66010585Y-174099838D01*
X65879389Y-174012176D01*
X65767824Y-173900611D01*
X65680162Y-173769415D01*
X65619781Y-173623643D01*
X65589000Y-173468893D01*
X65589000Y-173311107D01*
X65619781Y-173156357D01*
X65680162Y-173010585D01*
X65767824Y-172879389D01*
X65879389Y-172767824D01*
X66010585Y-172680162D01*
X66156357Y-172619781D01*
X66311107Y-172589000D01*
X66468893Y-172589000D01*
X66623643Y-172619781D01*
X66623643Y-172619781D01*
G37*
G36*
X59003643Y-172619781D02*
X59149415Y-172680162D01*
X59280611Y-172767824D01*
X59392176Y-172879389D01*
X59479838Y-173010585D01*
X59540219Y-173156357D01*
X59571000Y-173311107D01*
X59571000Y-173468893D01*
X59540219Y-173623643D01*
X59479838Y-173769415D01*
X59392176Y-173900611D01*
X59280611Y-174012176D01*
X59149415Y-174099838D01*
X59003643Y-174160219D01*
X58848893Y-174191000D01*
X58691107Y-174191000D01*
X58536357Y-174160219D01*
X58390585Y-174099838D01*
X58259389Y-174012176D01*
X58147824Y-173900611D01*
X58060162Y-173769415D01*
X57999781Y-173623643D01*
X57969000Y-173468893D01*
X57969000Y-173311107D01*
X57999781Y-173156357D01*
X58060162Y-173010585D01*
X58147824Y-172879389D01*
X58259389Y-172767824D01*
X58390585Y-172680162D01*
X58536357Y-172619781D01*
X58691107Y-172589000D01*
X58848893Y-172589000D01*
X59003643Y-172619781D01*
X59003643Y-172619781D01*
G37*
G36*
X28193643Y-172619781D02*
X28339415Y-172680162D01*
X28470611Y-172767824D01*
X28582176Y-172879389D01*
X28669838Y-173010585D01*
X28730219Y-173156357D01*
X28761000Y-173311107D01*
X28761000Y-173468893D01*
X28730219Y-173623643D01*
X28669838Y-173769415D01*
X28582176Y-173900611D01*
X28470611Y-174012176D01*
X28339415Y-174099838D01*
X28193643Y-174160219D01*
X28038893Y-174191000D01*
X27881107Y-174191000D01*
X27726357Y-174160219D01*
X27580585Y-174099838D01*
X27449389Y-174012176D01*
X27337824Y-173900611D01*
X27250162Y-173769415D01*
X27189781Y-173623643D01*
X27159000Y-173468893D01*
X27159000Y-173311107D01*
X27189781Y-173156357D01*
X27250162Y-173010585D01*
X27337824Y-172879389D01*
X27449389Y-172767824D01*
X27580585Y-172680162D01*
X27726357Y-172619781D01*
X27881107Y-172589000D01*
X28038893Y-172589000D01*
X28193643Y-172619781D01*
X28193643Y-172619781D01*
G37*
G36*
X25653643Y-172619781D02*
X25799415Y-172680162D01*
X25930611Y-172767824D01*
X26042176Y-172879389D01*
X26129838Y-173010585D01*
X26190219Y-173156357D01*
X26221000Y-173311107D01*
X26221000Y-173468893D01*
X26190219Y-173623643D01*
X26129838Y-173769415D01*
X26042176Y-173900611D01*
X25930611Y-174012176D01*
X25799415Y-174099838D01*
X25653643Y-174160219D01*
X25498893Y-174191000D01*
X25341107Y-174191000D01*
X25186357Y-174160219D01*
X25040585Y-174099838D01*
X24909389Y-174012176D01*
X24797824Y-173900611D01*
X24710162Y-173769415D01*
X24649781Y-173623643D01*
X24619000Y-173468893D01*
X24619000Y-173311107D01*
X24649781Y-173156357D01*
X24710162Y-173010585D01*
X24797824Y-172879389D01*
X24909389Y-172767824D01*
X25040585Y-172680162D01*
X25186357Y-172619781D01*
X25341107Y-172589000D01*
X25498893Y-172589000D01*
X25653643Y-172619781D01*
X25653643Y-172619781D01*
G37*
G36*
X23113643Y-172619781D02*
X23259415Y-172680162D01*
X23390611Y-172767824D01*
X23502176Y-172879389D01*
X23589838Y-173010585D01*
X23650219Y-173156357D01*
X23681000Y-173311107D01*
X23681000Y-173468893D01*
X23650219Y-173623643D01*
X23589838Y-173769415D01*
X23502176Y-173900611D01*
X23390611Y-174012176D01*
X23259415Y-174099838D01*
X23113643Y-174160219D01*
X22958893Y-174191000D01*
X22801107Y-174191000D01*
X22646357Y-174160219D01*
X22500585Y-174099838D01*
X22369389Y-174012176D01*
X22257824Y-173900611D01*
X22170162Y-173769415D01*
X22109781Y-173623643D01*
X22079000Y-173468893D01*
X22079000Y-173311107D01*
X22109781Y-173156357D01*
X22170162Y-173010585D01*
X22257824Y-172879389D01*
X22369389Y-172767824D01*
X22500585Y-172680162D01*
X22646357Y-172619781D01*
X22801107Y-172589000D01*
X22958893Y-172589000D01*
X23113643Y-172619781D01*
X23113643Y-172619781D01*
G37*
G36*
X20573643Y-172619781D02*
X20719415Y-172680162D01*
X20850611Y-172767824D01*
X20962176Y-172879389D01*
X21049838Y-173010585D01*
X21110219Y-173156357D01*
X21141000Y-173311107D01*
X21141000Y-173468893D01*
X21110219Y-173623643D01*
X21049838Y-173769415D01*
X20962176Y-173900611D01*
X20850611Y-174012176D01*
X20719415Y-174099838D01*
X20573643Y-174160219D01*
X20418893Y-174191000D01*
X20261107Y-174191000D01*
X20106357Y-174160219D01*
X19960585Y-174099838D01*
X19829389Y-174012176D01*
X19717824Y-173900611D01*
X19630162Y-173769415D01*
X19569781Y-173623643D01*
X19539000Y-173468893D01*
X19539000Y-173311107D01*
X19569781Y-173156357D01*
X19630162Y-173010585D01*
X19717824Y-172879389D01*
X19829389Y-172767824D01*
X19960585Y-172680162D01*
X20106357Y-172619781D01*
X20261107Y-172589000D01*
X20418893Y-172589000D01*
X20573643Y-172619781D01*
X20573643Y-172619781D01*
G37*
G36*
X21843643Y-170079781D02*
X21989415Y-170140162D01*
X22120611Y-170227824D01*
X22232176Y-170339389D01*
X22319838Y-170470585D01*
X22380219Y-170616357D01*
X22411000Y-170771107D01*
X22411000Y-170928893D01*
X22380219Y-171083643D01*
X22319838Y-171229415D01*
X22232176Y-171360611D01*
X22120611Y-171472176D01*
X21989415Y-171559838D01*
X21843643Y-171620219D01*
X21688893Y-171651000D01*
X21531107Y-171651000D01*
X21376357Y-171620219D01*
X21230585Y-171559838D01*
X21099389Y-171472176D01*
X20987824Y-171360611D01*
X20900162Y-171229415D01*
X20839781Y-171083643D01*
X20809000Y-170928893D01*
X20809000Y-170771107D01*
X20839781Y-170616357D01*
X20900162Y-170470585D01*
X20987824Y-170339389D01*
X21099389Y-170227824D01*
X21230585Y-170140162D01*
X21376357Y-170079781D01*
X21531107Y-170049000D01*
X21688893Y-170049000D01*
X21843643Y-170079781D01*
X21843643Y-170079781D01*
G37*
G36*
X60273643Y-170079781D02*
X60419415Y-170140162D01*
X60550611Y-170227824D01*
X60662176Y-170339389D01*
X60749838Y-170470585D01*
X60810219Y-170616357D01*
X60841000Y-170771107D01*
X60841000Y-170928893D01*
X60810219Y-171083643D01*
X60749838Y-171229415D01*
X60662176Y-171360611D01*
X60550611Y-171472176D01*
X60419415Y-171559838D01*
X60273643Y-171620219D01*
X60118893Y-171651000D01*
X59961107Y-171651000D01*
X59806357Y-171620219D01*
X59660585Y-171559838D01*
X59529389Y-171472176D01*
X59417824Y-171360611D01*
X59330162Y-171229415D01*
X59269781Y-171083643D01*
X59239000Y-170928893D01*
X59239000Y-170771107D01*
X59269781Y-170616357D01*
X59330162Y-170470585D01*
X59417824Y-170339389D01*
X59529389Y-170227824D01*
X59660585Y-170140162D01*
X59806357Y-170079781D01*
X59961107Y-170049000D01*
X60118893Y-170049000D01*
X60273643Y-170079781D01*
X60273643Y-170079781D01*
G37*
G36*
X67893643Y-170079781D02*
X68039415Y-170140162D01*
X68170611Y-170227824D01*
X68282176Y-170339389D01*
X68369838Y-170470585D01*
X68430219Y-170616357D01*
X68461000Y-170771107D01*
X68461000Y-170928893D01*
X68430219Y-171083643D01*
X68369838Y-171229415D01*
X68282176Y-171360611D01*
X68170611Y-171472176D01*
X68039415Y-171559838D01*
X67893643Y-171620219D01*
X67738893Y-171651000D01*
X67581107Y-171651000D01*
X67426357Y-171620219D01*
X67280585Y-171559838D01*
X67149389Y-171472176D01*
X67037824Y-171360611D01*
X66950162Y-171229415D01*
X66889781Y-171083643D01*
X66859000Y-170928893D01*
X66859000Y-170771107D01*
X66889781Y-170616357D01*
X66950162Y-170470585D01*
X67037824Y-170339389D01*
X67149389Y-170227824D01*
X67280585Y-170140162D01*
X67426357Y-170079781D01*
X67581107Y-170049000D01*
X67738893Y-170049000D01*
X67893643Y-170079781D01*
X67893643Y-170079781D01*
G37*
G36*
X65353643Y-170079781D02*
X65499415Y-170140162D01*
X65630611Y-170227824D01*
X65742176Y-170339389D01*
X65829838Y-170470585D01*
X65890219Y-170616357D01*
X65921000Y-170771107D01*
X65921000Y-170928893D01*
X65890219Y-171083643D01*
X65829838Y-171229415D01*
X65742176Y-171360611D01*
X65630611Y-171472176D01*
X65499415Y-171559838D01*
X65353643Y-171620219D01*
X65198893Y-171651000D01*
X65041107Y-171651000D01*
X64886357Y-171620219D01*
X64740585Y-171559838D01*
X64609389Y-171472176D01*
X64497824Y-171360611D01*
X64410162Y-171229415D01*
X64349781Y-171083643D01*
X64319000Y-170928893D01*
X64319000Y-170771107D01*
X64349781Y-170616357D01*
X64410162Y-170470585D01*
X64497824Y-170339389D01*
X64609389Y-170227824D01*
X64740585Y-170140162D01*
X64886357Y-170079781D01*
X65041107Y-170049000D01*
X65198893Y-170049000D01*
X65353643Y-170079781D01*
X65353643Y-170079781D01*
G37*
G36*
X62813643Y-170079781D02*
X62959415Y-170140162D01*
X63090611Y-170227824D01*
X63202176Y-170339389D01*
X63289838Y-170470585D01*
X63350219Y-170616357D01*
X63381000Y-170771107D01*
X63381000Y-170928893D01*
X63350219Y-171083643D01*
X63289838Y-171229415D01*
X63202176Y-171360611D01*
X63090611Y-171472176D01*
X62959415Y-171559838D01*
X62813643Y-171620219D01*
X62658893Y-171651000D01*
X62501107Y-171651000D01*
X62346357Y-171620219D01*
X62200585Y-171559838D01*
X62069389Y-171472176D01*
X61957824Y-171360611D01*
X61870162Y-171229415D01*
X61809781Y-171083643D01*
X61779000Y-170928893D01*
X61779000Y-170771107D01*
X61809781Y-170616357D01*
X61870162Y-170470585D01*
X61957824Y-170339389D01*
X62069389Y-170227824D01*
X62200585Y-170140162D01*
X62346357Y-170079781D01*
X62501107Y-170049000D01*
X62658893Y-170049000D01*
X62813643Y-170079781D01*
X62813643Y-170079781D01*
G37*
G36*
X24383643Y-170079781D02*
X24529415Y-170140162D01*
X24660611Y-170227824D01*
X24772176Y-170339389D01*
X24859838Y-170470585D01*
X24920219Y-170616357D01*
X24951000Y-170771107D01*
X24951000Y-170928893D01*
X24920219Y-171083643D01*
X24859838Y-171229415D01*
X24772176Y-171360611D01*
X24660611Y-171472176D01*
X24529415Y-171559838D01*
X24383643Y-171620219D01*
X24228893Y-171651000D01*
X24071107Y-171651000D01*
X23916357Y-171620219D01*
X23770585Y-171559838D01*
X23639389Y-171472176D01*
X23527824Y-171360611D01*
X23440162Y-171229415D01*
X23379781Y-171083643D01*
X23349000Y-170928893D01*
X23349000Y-170771107D01*
X23379781Y-170616357D01*
X23440162Y-170470585D01*
X23527824Y-170339389D01*
X23639389Y-170227824D01*
X23770585Y-170140162D01*
X23916357Y-170079781D01*
X24071107Y-170049000D01*
X24228893Y-170049000D01*
X24383643Y-170079781D01*
X24383643Y-170079781D01*
G37*
G36*
X29463643Y-170079781D02*
X29609415Y-170140162D01*
X29740611Y-170227824D01*
X29852176Y-170339389D01*
X29939838Y-170470585D01*
X30000219Y-170616357D01*
X30031000Y-170771107D01*
X30031000Y-170928893D01*
X30000219Y-171083643D01*
X29939838Y-171229415D01*
X29852176Y-171360611D01*
X29740611Y-171472176D01*
X29609415Y-171559838D01*
X29463643Y-171620219D01*
X29308893Y-171651000D01*
X29151107Y-171651000D01*
X28996357Y-171620219D01*
X28850585Y-171559838D01*
X28719389Y-171472176D01*
X28607824Y-171360611D01*
X28520162Y-171229415D01*
X28459781Y-171083643D01*
X28429000Y-170928893D01*
X28429000Y-170771107D01*
X28459781Y-170616357D01*
X28520162Y-170470585D01*
X28607824Y-170339389D01*
X28719389Y-170227824D01*
X28850585Y-170140162D01*
X28996357Y-170079781D01*
X29151107Y-170049000D01*
X29308893Y-170049000D01*
X29463643Y-170079781D01*
X29463643Y-170079781D01*
G37*
G36*
X26923643Y-170079781D02*
X27069415Y-170140162D01*
X27200611Y-170227824D01*
X27312176Y-170339389D01*
X27399838Y-170470585D01*
X27460219Y-170616357D01*
X27491000Y-170771107D01*
X27491000Y-170928893D01*
X27460219Y-171083643D01*
X27399838Y-171229415D01*
X27312176Y-171360611D01*
X27200611Y-171472176D01*
X27069415Y-171559838D01*
X26923643Y-171620219D01*
X26768893Y-171651000D01*
X26611107Y-171651000D01*
X26456357Y-171620219D01*
X26310585Y-171559838D01*
X26179389Y-171472176D01*
X26067824Y-171360611D01*
X25980162Y-171229415D01*
X25919781Y-171083643D01*
X25889000Y-170928893D01*
X25889000Y-170771107D01*
X25919781Y-170616357D01*
X25980162Y-170470585D01*
X26067824Y-170339389D01*
X26179389Y-170227824D01*
X26310585Y-170140162D01*
X26456357Y-170079781D01*
X26611107Y-170049000D01*
X26768893Y-170049000D01*
X26923643Y-170079781D01*
X26923643Y-170079781D01*
G37*
G36*
X19596791Y-162763404D02*
X19925462Y-162899544D01*
X20217321Y-163094559D01*
X20221261Y-163097191D01*
X20472809Y-163348739D01*
X20670457Y-163644540D01*
X20806596Y-163973209D01*
X20876000Y-164322124D01*
X20876000Y-164677876D01*
X20806596Y-165026791D01*
X20670457Y-165355460D01*
X20472809Y-165651261D01*
X20221261Y-165902809D01*
X20221258Y-165902811D01*
X19925462Y-166100456D01*
X19925461Y-166100457D01*
X19925460Y-166100457D01*
X19596791Y-166236596D01*
X19247876Y-166306000D01*
X18892124Y-166306000D01*
X18543209Y-166236596D01*
X18214540Y-166100457D01*
X18214539Y-166100457D01*
X18214538Y-166100456D01*
X17918742Y-165902811D01*
X17918739Y-165902809D01*
X17667191Y-165651261D01*
X17469543Y-165355460D01*
X17333404Y-165026791D01*
X17264000Y-164677876D01*
X17264000Y-164322124D01*
X17333404Y-163973209D01*
X17469543Y-163644540D01*
X17667191Y-163348739D01*
X17918739Y-163097191D01*
X17922679Y-163094559D01*
X18214538Y-162899544D01*
X18543209Y-162763404D01*
X18892124Y-162694000D01*
X19247876Y-162694000D01*
X19596791Y-162763404D01*
X19596791Y-162763404D01*
G37*
G36*
X69456791Y-162763404D02*
X69785462Y-162899544D01*
X70077321Y-163094559D01*
X70081261Y-163097191D01*
X70332809Y-163348739D01*
X70530457Y-163644540D01*
X70666596Y-163973209D01*
X70736000Y-164322124D01*
X70736000Y-164677876D01*
X70666596Y-165026791D01*
X70530457Y-165355460D01*
X70332809Y-165651261D01*
X70081261Y-165902809D01*
X70081258Y-165902811D01*
X69785462Y-166100456D01*
X69785461Y-166100457D01*
X69785460Y-166100457D01*
X69456791Y-166236596D01*
X69107876Y-166306000D01*
X68752124Y-166306000D01*
X68403209Y-166236596D01*
X68074540Y-166100457D01*
X68074539Y-166100457D01*
X68074538Y-166100456D01*
X67778742Y-165902811D01*
X67778739Y-165902809D01*
X67527191Y-165651261D01*
X67329543Y-165355460D01*
X67193404Y-165026791D01*
X67124000Y-164677876D01*
X67124000Y-164322124D01*
X67193404Y-163973209D01*
X67329543Y-163644540D01*
X67527191Y-163348739D01*
X67778739Y-163097191D01*
X67782679Y-163094559D01*
X68074538Y-162899544D01*
X68403209Y-162763404D01*
X68752124Y-162694000D01*
X69107876Y-162694000D01*
X69456791Y-162763404D01*
X69456791Y-162763404D01*
G37*
G36*
X58026791Y-162763404D02*
X58355462Y-162899544D01*
X58647321Y-163094559D01*
X58651261Y-163097191D01*
X58902809Y-163348739D01*
X59100457Y-163644540D01*
X59236596Y-163973209D01*
X59306000Y-164322124D01*
X59306000Y-164677876D01*
X59236596Y-165026791D01*
X59100457Y-165355460D01*
X58902809Y-165651261D01*
X58651261Y-165902809D01*
X58651258Y-165902811D01*
X58355462Y-166100456D01*
X58355461Y-166100457D01*
X58355460Y-166100457D01*
X58026791Y-166236596D01*
X57677876Y-166306000D01*
X57322124Y-166306000D01*
X56973209Y-166236596D01*
X56644540Y-166100457D01*
X56644539Y-166100457D01*
X56644538Y-166100456D01*
X56348742Y-165902811D01*
X56348739Y-165902809D01*
X56097191Y-165651261D01*
X55899543Y-165355460D01*
X55763404Y-165026791D01*
X55694000Y-164677876D01*
X55694000Y-164322124D01*
X55763404Y-163973209D01*
X55899543Y-163644540D01*
X56097191Y-163348739D01*
X56348739Y-163097191D01*
X56352679Y-163094559D01*
X56644538Y-162899544D01*
X56973209Y-162763404D01*
X57322124Y-162694000D01*
X57677876Y-162694000D01*
X58026791Y-162763404D01*
X58026791Y-162763404D01*
G37*
G36*
X31026791Y-162763404D02*
X31355462Y-162899544D01*
X31647321Y-163094559D01*
X31651261Y-163097191D01*
X31902809Y-163348739D01*
X32100457Y-163644540D01*
X32236596Y-163973209D01*
X32306000Y-164322124D01*
X32306000Y-164677876D01*
X32236596Y-165026791D01*
X32100457Y-165355460D01*
X31902809Y-165651261D01*
X31651261Y-165902809D01*
X31651258Y-165902811D01*
X31355462Y-166100456D01*
X31355461Y-166100457D01*
X31355460Y-166100457D01*
X31026791Y-166236596D01*
X30677876Y-166306000D01*
X30322124Y-166306000D01*
X29973209Y-166236596D01*
X29644540Y-166100457D01*
X29644539Y-166100457D01*
X29644538Y-166100456D01*
X29348742Y-165902811D01*
X29348739Y-165902809D01*
X29097191Y-165651261D01*
X28899543Y-165355460D01*
X28763404Y-165026791D01*
X28694000Y-164677876D01*
X28694000Y-164322124D01*
X28763404Y-163973209D01*
X28899543Y-163644540D01*
X29097191Y-163348739D01*
X29348739Y-163097191D01*
X29352679Y-163094559D01*
X29644538Y-162899544D01*
X29973209Y-162763404D01*
X30322124Y-162694000D01*
X30677876Y-162694000D01*
X31026791Y-162763404D01*
X31026791Y-162763404D01*
G37*
G36*
X71354271Y-160578816D02*
X71519152Y-160647112D01*
X71667542Y-160746264D01*
X71793736Y-160872458D01*
X71892888Y-161020848D01*
X71961184Y-161185729D01*
X71996000Y-161360765D01*
X71996000Y-161539235D01*
X71961184Y-161714271D01*
X71892888Y-161879152D01*
X71793736Y-162027542D01*
X71667542Y-162153736D01*
X71519152Y-162252888D01*
X71354271Y-162321184D01*
X71179235Y-162356000D01*
X71000765Y-162356000D01*
X70825729Y-162321184D01*
X70660848Y-162252888D01*
X70512458Y-162153736D01*
X70386264Y-162027542D01*
X70287112Y-161879152D01*
X70218816Y-161714271D01*
X70184000Y-161539235D01*
X70184000Y-161360765D01*
X70218816Y-161185729D01*
X70287112Y-161020848D01*
X70386264Y-160872458D01*
X70512458Y-160746264D01*
X70660848Y-160647112D01*
X70825729Y-160578816D01*
X71000765Y-160544000D01*
X71179235Y-160544000D01*
X71354271Y-160578816D01*
X71354271Y-160578816D01*
G37*
G36*
X17174271Y-160578816D02*
X17339152Y-160647112D01*
X17487542Y-160746264D01*
X17613736Y-160872458D01*
X17712888Y-161020848D01*
X17781184Y-161185729D01*
X17816000Y-161360765D01*
X17816000Y-161539235D01*
X17781184Y-161714271D01*
X17712888Y-161879152D01*
X17613736Y-162027542D01*
X17487542Y-162153736D01*
X17339152Y-162252888D01*
X17174271Y-162321184D01*
X16999235Y-162356000D01*
X16820765Y-162356000D01*
X16645729Y-162321184D01*
X16480848Y-162252888D01*
X16332458Y-162153736D01*
X16206264Y-162027542D01*
X16107112Y-161879152D01*
X16038816Y-161714271D01*
X16004000Y-161539235D01*
X16004000Y-161360765D01*
X16038816Y-161185729D01*
X16107112Y-161020848D01*
X16206264Y-160872458D01*
X16332458Y-160746264D01*
X16480848Y-160647112D01*
X16645729Y-160578816D01*
X16820765Y-160544000D01*
X16999235Y-160544000D01*
X17174271Y-160578816D01*
X17174271Y-160578816D01*
G37*
G36*
X32924271Y-160578816D02*
X33089152Y-160647112D01*
X33237542Y-160746264D01*
X33363736Y-160872458D01*
X33462888Y-161020848D01*
X33531184Y-161185729D01*
X33566000Y-161360765D01*
X33566000Y-161539235D01*
X33531184Y-161714271D01*
X33462888Y-161879152D01*
X33363736Y-162027542D01*
X33237542Y-162153736D01*
X33089152Y-162252888D01*
X32924271Y-162321184D01*
X32749235Y-162356000D01*
X32570765Y-162356000D01*
X32395729Y-162321184D01*
X32230848Y-162252888D01*
X32082458Y-162153736D01*
X31956264Y-162027542D01*
X31857112Y-161879152D01*
X31788816Y-161714271D01*
X31754000Y-161539235D01*
X31754000Y-161360765D01*
X31788816Y-161185729D01*
X31857112Y-161020848D01*
X31956264Y-160872458D01*
X32082458Y-160746264D01*
X32230848Y-160647112D01*
X32395729Y-160578816D01*
X32570765Y-160544000D01*
X32749235Y-160544000D01*
X32924271Y-160578816D01*
X32924271Y-160578816D01*
G37*
G36*
X55604271Y-160578816D02*
X55769152Y-160647112D01*
X55917542Y-160746264D01*
X56043736Y-160872458D01*
X56142888Y-161020848D01*
X56211184Y-161185729D01*
X56246000Y-161360765D01*
X56246000Y-161539235D01*
X56211184Y-161714271D01*
X56142888Y-161879152D01*
X56043736Y-162027542D01*
X55917542Y-162153736D01*
X55769152Y-162252888D01*
X55604271Y-162321184D01*
X55429235Y-162356000D01*
X55250765Y-162356000D01*
X55075729Y-162321184D01*
X54910848Y-162252888D01*
X54762458Y-162153736D01*
X54636264Y-162027542D01*
X54537112Y-161879152D01*
X54468816Y-161714271D01*
X54434000Y-161539235D01*
X54434000Y-161360765D01*
X54468816Y-161185729D01*
X54537112Y-161020848D01*
X54636264Y-160872458D01*
X54762458Y-160746264D01*
X54910848Y-160647112D01*
X55075729Y-160578816D01*
X55250765Y-160544000D01*
X55429235Y-160544000D01*
X55604271Y-160578816D01*
X55604271Y-160578816D01*
G37*
G36*
X59018643Y-152744782D02*
X59164415Y-152805163D01*
X59295611Y-152892825D01*
X59407176Y-153004390D01*
X59494838Y-153135586D01*
X59555219Y-153281358D01*
X59586000Y-153436108D01*
X59586000Y-153593894D01*
X59555219Y-153748644D01*
X59494838Y-153894416D01*
X59407176Y-154025612D01*
X59295611Y-154137177D01*
X59164415Y-154224839D01*
X59018643Y-154285220D01*
X58863893Y-154316001D01*
X58706107Y-154316001D01*
X58551357Y-154285220D01*
X58405585Y-154224839D01*
X58274389Y-154137177D01*
X58162824Y-154025612D01*
X58075162Y-153894416D01*
X58014781Y-153748644D01*
X57984000Y-153593894D01*
X57984000Y-153436108D01*
X58014781Y-153281358D01*
X58075162Y-153135586D01*
X58162824Y-153004390D01*
X58274389Y-152892825D01*
X58405585Y-152805163D01*
X58551357Y-152744782D01*
X58706107Y-152714001D01*
X58863893Y-152714001D01*
X59018643Y-152744782D01*
X59018643Y-152744782D01*
G37*
G36*
X64098643Y-152744782D02*
X64244415Y-152805163D01*
X64375611Y-152892825D01*
X64487176Y-153004390D01*
X64574838Y-153135586D01*
X64635219Y-153281358D01*
X64666000Y-153436108D01*
X64666000Y-153593894D01*
X64635219Y-153748644D01*
X64574838Y-153894416D01*
X64487176Y-154025612D01*
X64375611Y-154137177D01*
X64244415Y-154224839D01*
X64098643Y-154285220D01*
X63943893Y-154316001D01*
X63786107Y-154316001D01*
X63631357Y-154285220D01*
X63485585Y-154224839D01*
X63354389Y-154137177D01*
X63242824Y-154025612D01*
X63155162Y-153894416D01*
X63094781Y-153748644D01*
X63064000Y-153593894D01*
X63064000Y-153436108D01*
X63094781Y-153281358D01*
X63155162Y-153135586D01*
X63242824Y-153004390D01*
X63354389Y-152892825D01*
X63485585Y-152805163D01*
X63631357Y-152744782D01*
X63786107Y-152714001D01*
X63943893Y-152714001D01*
X64098643Y-152744782D01*
X64098643Y-152744782D01*
G37*
G36*
X66638643Y-152744782D02*
X66784415Y-152805163D01*
X66915611Y-152892825D01*
X67027176Y-153004390D01*
X67114838Y-153135586D01*
X67175219Y-153281358D01*
X67206000Y-153436108D01*
X67206000Y-153593894D01*
X67175219Y-153748644D01*
X67114838Y-153894416D01*
X67027176Y-154025612D01*
X66915611Y-154137177D01*
X66784415Y-154224839D01*
X66638643Y-154285220D01*
X66483893Y-154316001D01*
X66326107Y-154316001D01*
X66171357Y-154285220D01*
X66025585Y-154224839D01*
X65894389Y-154137177D01*
X65782824Y-154025612D01*
X65695162Y-153894416D01*
X65634781Y-153748644D01*
X65604000Y-153593894D01*
X65604000Y-153436108D01*
X65634781Y-153281358D01*
X65695162Y-153135586D01*
X65782824Y-153004390D01*
X65894389Y-152892825D01*
X66025585Y-152805163D01*
X66171357Y-152744782D01*
X66326107Y-152714001D01*
X66483893Y-152714001D01*
X66638643Y-152744782D01*
X66638643Y-152744782D01*
G37*
G36*
X61558643Y-152744782D02*
X61704415Y-152805163D01*
X61835611Y-152892825D01*
X61947176Y-153004390D01*
X62034838Y-153135586D01*
X62095219Y-153281358D01*
X62126000Y-153436108D01*
X62126000Y-153593894D01*
X62095219Y-153748644D01*
X62034838Y-153894416D01*
X61947176Y-154025612D01*
X61835611Y-154137177D01*
X61704415Y-154224839D01*
X61558643Y-154285220D01*
X61403893Y-154316001D01*
X61246107Y-154316001D01*
X61091357Y-154285220D01*
X60945585Y-154224839D01*
X60814389Y-154137177D01*
X60702824Y-154025612D01*
X60615162Y-153894416D01*
X60554781Y-153748644D01*
X60524000Y-153593894D01*
X60524000Y-153436108D01*
X60554781Y-153281358D01*
X60615162Y-153135586D01*
X60702824Y-153004390D01*
X60814389Y-152892825D01*
X60945585Y-152805163D01*
X61091357Y-152744782D01*
X61246107Y-152714001D01*
X61403893Y-152714001D01*
X61558643Y-152744782D01*
X61558643Y-152744782D01*
G37*
G36*
X25653643Y-152619781D02*
X25799415Y-152680162D01*
X25930611Y-152767824D01*
X26042176Y-152879389D01*
X26129838Y-153010585D01*
X26190219Y-153156357D01*
X26221000Y-153311107D01*
X26221000Y-153468893D01*
X26190219Y-153623643D01*
X26129838Y-153769415D01*
X26042176Y-153900611D01*
X25930611Y-154012176D01*
X25799415Y-154099838D01*
X25653643Y-154160219D01*
X25498893Y-154191000D01*
X25341107Y-154191000D01*
X25186357Y-154160219D01*
X25040585Y-154099838D01*
X24909389Y-154012176D01*
X24797824Y-153900611D01*
X24710162Y-153769415D01*
X24649781Y-153623643D01*
X24619000Y-153468893D01*
X24619000Y-153311107D01*
X24649781Y-153156357D01*
X24710162Y-153010585D01*
X24797824Y-152879389D01*
X24909389Y-152767824D01*
X25040585Y-152680162D01*
X25186357Y-152619781D01*
X25341107Y-152589000D01*
X25498893Y-152589000D01*
X25653643Y-152619781D01*
X25653643Y-152619781D01*
G37*
G36*
X23113643Y-152619781D02*
X23259415Y-152680162D01*
X23390611Y-152767824D01*
X23502176Y-152879389D01*
X23589838Y-153010585D01*
X23650219Y-153156357D01*
X23681000Y-153311107D01*
X23681000Y-153468893D01*
X23650219Y-153623643D01*
X23589838Y-153769415D01*
X23502176Y-153900611D01*
X23390611Y-154012176D01*
X23259415Y-154099838D01*
X23113643Y-154160219D01*
X22958893Y-154191000D01*
X22801107Y-154191000D01*
X22646357Y-154160219D01*
X22500585Y-154099838D01*
X22369389Y-154012176D01*
X22257824Y-153900611D01*
X22170162Y-153769415D01*
X22109781Y-153623643D01*
X22079000Y-153468893D01*
X22079000Y-153311107D01*
X22109781Y-153156357D01*
X22170162Y-153010585D01*
X22257824Y-152879389D01*
X22369389Y-152767824D01*
X22500585Y-152680162D01*
X22646357Y-152619781D01*
X22801107Y-152589000D01*
X22958893Y-152589000D01*
X23113643Y-152619781D01*
X23113643Y-152619781D01*
G37*
G36*
X20573643Y-152619781D02*
X20719415Y-152680162D01*
X20850611Y-152767824D01*
X20962176Y-152879389D01*
X21049838Y-153010585D01*
X21110219Y-153156357D01*
X21141000Y-153311107D01*
X21141000Y-153468893D01*
X21110219Y-153623643D01*
X21049838Y-153769415D01*
X20962176Y-153900611D01*
X20850611Y-154012176D01*
X20719415Y-154099838D01*
X20573643Y-154160219D01*
X20418893Y-154191000D01*
X20261107Y-154191000D01*
X20106357Y-154160219D01*
X19960585Y-154099838D01*
X19829389Y-154012176D01*
X19717824Y-153900611D01*
X19630162Y-153769415D01*
X19569781Y-153623643D01*
X19539000Y-153468893D01*
X19539000Y-153311107D01*
X19569781Y-153156357D01*
X19630162Y-153010585D01*
X19717824Y-152879389D01*
X19829389Y-152767824D01*
X19960585Y-152680162D01*
X20106357Y-152619781D01*
X20261107Y-152589000D01*
X20418893Y-152589000D01*
X20573643Y-152619781D01*
X20573643Y-152619781D01*
G37*
G36*
X28193643Y-152619781D02*
X28339415Y-152680162D01*
X28470611Y-152767824D01*
X28582176Y-152879389D01*
X28669838Y-153010585D01*
X28730219Y-153156357D01*
X28761000Y-153311107D01*
X28761000Y-153468893D01*
X28730219Y-153623643D01*
X28669838Y-153769415D01*
X28582176Y-153900611D01*
X28470611Y-154012176D01*
X28339415Y-154099838D01*
X28193643Y-154160219D01*
X28038893Y-154191000D01*
X27881107Y-154191000D01*
X27726357Y-154160219D01*
X27580585Y-154099838D01*
X27449389Y-154012176D01*
X27337824Y-153900611D01*
X27250162Y-153769415D01*
X27189781Y-153623643D01*
X27159000Y-153468893D01*
X27159000Y-153311107D01*
X27189781Y-153156357D01*
X27250162Y-153010585D01*
X27337824Y-152879389D01*
X27449389Y-152767824D01*
X27580585Y-152680162D01*
X27726357Y-152619781D01*
X27881107Y-152589000D01*
X28038893Y-152589000D01*
X28193643Y-152619781D01*
X28193643Y-152619781D01*
G37*
G36*
X60288643Y-150204782D02*
X60434415Y-150265163D01*
X60565611Y-150352825D01*
X60677176Y-150464390D01*
X60764838Y-150595586D01*
X60825219Y-150741358D01*
X60856000Y-150896108D01*
X60856000Y-151053894D01*
X60825219Y-151208644D01*
X60764838Y-151354416D01*
X60677176Y-151485612D01*
X60565611Y-151597177D01*
X60434415Y-151684839D01*
X60288643Y-151745220D01*
X60133893Y-151776001D01*
X59976107Y-151776001D01*
X59821357Y-151745220D01*
X59675585Y-151684839D01*
X59544389Y-151597177D01*
X59432824Y-151485612D01*
X59345162Y-151354416D01*
X59284781Y-151208644D01*
X59254000Y-151053894D01*
X59254000Y-150896108D01*
X59284781Y-150741358D01*
X59345162Y-150595586D01*
X59432824Y-150464390D01*
X59544389Y-150352825D01*
X59675585Y-150265163D01*
X59821357Y-150204782D01*
X59976107Y-150174001D01*
X60133893Y-150174001D01*
X60288643Y-150204782D01*
X60288643Y-150204782D01*
G37*
G36*
X67908643Y-150204782D02*
X68054415Y-150265163D01*
X68185611Y-150352825D01*
X68297176Y-150464390D01*
X68384838Y-150595586D01*
X68445219Y-150741358D01*
X68476000Y-150896108D01*
X68476000Y-151053894D01*
X68445219Y-151208644D01*
X68384838Y-151354416D01*
X68297176Y-151485612D01*
X68185611Y-151597177D01*
X68054415Y-151684839D01*
X67908643Y-151745220D01*
X67753893Y-151776001D01*
X67596107Y-151776001D01*
X67441357Y-151745220D01*
X67295585Y-151684839D01*
X67164389Y-151597177D01*
X67052824Y-151485612D01*
X66965162Y-151354416D01*
X66904781Y-151208644D01*
X66874000Y-151053894D01*
X66874000Y-150896108D01*
X66904781Y-150741358D01*
X66965162Y-150595586D01*
X67052824Y-150464390D01*
X67164389Y-150352825D01*
X67295585Y-150265163D01*
X67441357Y-150204782D01*
X67596107Y-150174001D01*
X67753893Y-150174001D01*
X67908643Y-150204782D01*
X67908643Y-150204782D01*
G37*
G36*
X65368643Y-150204782D02*
X65514415Y-150265163D01*
X65645611Y-150352825D01*
X65757176Y-150464390D01*
X65844838Y-150595586D01*
X65905219Y-150741358D01*
X65936000Y-150896108D01*
X65936000Y-151053894D01*
X65905219Y-151208644D01*
X65844838Y-151354416D01*
X65757176Y-151485612D01*
X65645611Y-151597177D01*
X65514415Y-151684839D01*
X65368643Y-151745220D01*
X65213893Y-151776001D01*
X65056107Y-151776001D01*
X64901357Y-151745220D01*
X64755585Y-151684839D01*
X64624389Y-151597177D01*
X64512824Y-151485612D01*
X64425162Y-151354416D01*
X64364781Y-151208644D01*
X64334000Y-151053894D01*
X64334000Y-150896108D01*
X64364781Y-150741358D01*
X64425162Y-150595586D01*
X64512824Y-150464390D01*
X64624389Y-150352825D01*
X64755585Y-150265163D01*
X64901357Y-150204782D01*
X65056107Y-150174001D01*
X65213893Y-150174001D01*
X65368643Y-150204782D01*
X65368643Y-150204782D01*
G37*
G36*
X62828643Y-150204782D02*
X62974415Y-150265163D01*
X63105611Y-150352825D01*
X63217176Y-150464390D01*
X63304838Y-150595586D01*
X63365219Y-150741358D01*
X63396000Y-150896108D01*
X63396000Y-151053894D01*
X63365219Y-151208644D01*
X63304838Y-151354416D01*
X63217176Y-151485612D01*
X63105611Y-151597177D01*
X62974415Y-151684839D01*
X62828643Y-151745220D01*
X62673893Y-151776001D01*
X62516107Y-151776001D01*
X62361357Y-151745220D01*
X62215585Y-151684839D01*
X62084389Y-151597177D01*
X61972824Y-151485612D01*
X61885162Y-151354416D01*
X61824781Y-151208644D01*
X61794000Y-151053894D01*
X61794000Y-150896108D01*
X61824781Y-150741358D01*
X61885162Y-150595586D01*
X61972824Y-150464390D01*
X62084389Y-150352825D01*
X62215585Y-150265163D01*
X62361357Y-150204782D01*
X62516107Y-150174001D01*
X62673893Y-150174001D01*
X62828643Y-150204782D01*
X62828643Y-150204782D01*
G37*
G36*
X21843643Y-150079781D02*
X21989415Y-150140162D01*
X22120611Y-150227824D01*
X22232176Y-150339389D01*
X22319838Y-150470585D01*
X22380219Y-150616357D01*
X22411000Y-150771107D01*
X22411000Y-150928893D01*
X22380219Y-151083643D01*
X22319838Y-151229415D01*
X22232176Y-151360611D01*
X22120611Y-151472176D01*
X21989415Y-151559838D01*
X21843643Y-151620219D01*
X21688893Y-151651000D01*
X21531107Y-151651000D01*
X21376357Y-151620219D01*
X21230585Y-151559838D01*
X21099389Y-151472176D01*
X20987824Y-151360611D01*
X20900162Y-151229415D01*
X20839781Y-151083643D01*
X20809000Y-150928893D01*
X20809000Y-150771107D01*
X20839781Y-150616357D01*
X20900162Y-150470585D01*
X20987824Y-150339389D01*
X21099389Y-150227824D01*
X21230585Y-150140162D01*
X21376357Y-150079781D01*
X21531107Y-150049000D01*
X21688893Y-150049000D01*
X21843643Y-150079781D01*
X21843643Y-150079781D01*
G37*
G36*
X24383643Y-150079781D02*
X24529415Y-150140162D01*
X24660611Y-150227824D01*
X24772176Y-150339389D01*
X24859838Y-150470585D01*
X24920219Y-150616357D01*
X24951000Y-150771107D01*
X24951000Y-150928893D01*
X24920219Y-151083643D01*
X24859838Y-151229415D01*
X24772176Y-151360611D01*
X24660611Y-151472176D01*
X24529415Y-151559838D01*
X24383643Y-151620219D01*
X24228893Y-151651000D01*
X24071107Y-151651000D01*
X23916357Y-151620219D01*
X23770585Y-151559838D01*
X23639389Y-151472176D01*
X23527824Y-151360611D01*
X23440162Y-151229415D01*
X23379781Y-151083643D01*
X23349000Y-150928893D01*
X23349000Y-150771107D01*
X23379781Y-150616357D01*
X23440162Y-150470585D01*
X23527824Y-150339389D01*
X23639389Y-150227824D01*
X23770585Y-150140162D01*
X23916357Y-150079781D01*
X24071107Y-150049000D01*
X24228893Y-150049000D01*
X24383643Y-150079781D01*
X24383643Y-150079781D01*
G37*
G36*
X26923643Y-150079781D02*
X27069415Y-150140162D01*
X27200611Y-150227824D01*
X27312176Y-150339389D01*
X27399838Y-150470585D01*
X27460219Y-150616357D01*
X27491000Y-150771107D01*
X27491000Y-150928893D01*
X27460219Y-151083643D01*
X27399838Y-151229415D01*
X27312176Y-151360611D01*
X27200611Y-151472176D01*
X27069415Y-151559838D01*
X26923643Y-151620219D01*
X26768893Y-151651000D01*
X26611107Y-151651000D01*
X26456357Y-151620219D01*
X26310585Y-151559838D01*
X26179389Y-151472176D01*
X26067824Y-151360611D01*
X25980162Y-151229415D01*
X25919781Y-151083643D01*
X25889000Y-150928893D01*
X25889000Y-150771107D01*
X25919781Y-150616357D01*
X25980162Y-150470585D01*
X26067824Y-150339389D01*
X26179389Y-150227824D01*
X26310585Y-150140162D01*
X26456357Y-150079781D01*
X26611107Y-150049000D01*
X26768893Y-150049000D01*
X26923643Y-150079781D01*
X26923643Y-150079781D01*
G37*
G36*
X29463643Y-150079781D02*
X29609415Y-150140162D01*
X29740611Y-150227824D01*
X29852176Y-150339389D01*
X29939838Y-150470585D01*
X30000219Y-150616357D01*
X30031000Y-150771107D01*
X30031000Y-150928893D01*
X30000219Y-151083643D01*
X29939838Y-151229415D01*
X29852176Y-151360611D01*
X29740611Y-151472176D01*
X29609415Y-151559838D01*
X29463643Y-151620219D01*
X29308893Y-151651000D01*
X29151107Y-151651000D01*
X28996357Y-151620219D01*
X28850585Y-151559838D01*
X28719389Y-151472176D01*
X28607824Y-151360611D01*
X28520162Y-151229415D01*
X28459781Y-151083643D01*
X28429000Y-150928893D01*
X28429000Y-150771107D01*
X28459781Y-150616357D01*
X28520162Y-150470585D01*
X28607824Y-150339389D01*
X28719389Y-150227824D01*
X28850585Y-150140162D01*
X28996357Y-150079781D01*
X29151107Y-150049000D01*
X29308893Y-150049000D01*
X29463643Y-150079781D01*
X29463643Y-150079781D01*
G37*
G36*
X58041791Y-142888405D02*
X58370462Y-143024545D01*
X58479181Y-143097189D01*
X58666261Y-143222192D01*
X58917809Y-143473740D01*
X59115457Y-143769541D01*
X59251596Y-144098210D01*
X59321000Y-144447125D01*
X59321000Y-144802877D01*
X59251596Y-145151792D01*
X59115457Y-145480461D01*
X58917809Y-145776262D01*
X58666261Y-146027810D01*
X58666258Y-146027812D01*
X58370462Y-146225457D01*
X58370461Y-146225458D01*
X58370460Y-146225458D01*
X58041791Y-146361597D01*
X57692876Y-146431001D01*
X57337124Y-146431001D01*
X56988209Y-146361597D01*
X56659540Y-146225458D01*
X56659539Y-146225458D01*
X56659538Y-146225457D01*
X56363742Y-146027812D01*
X56363739Y-146027810D01*
X56112191Y-145776262D01*
X55914543Y-145480461D01*
X55778404Y-145151792D01*
X55709000Y-144802877D01*
X55709000Y-144447125D01*
X55778404Y-144098210D01*
X55914543Y-143769541D01*
X56112191Y-143473740D01*
X56363739Y-143222192D01*
X56550819Y-143097189D01*
X56659538Y-143024545D01*
X56988209Y-142888405D01*
X57337124Y-142819001D01*
X57692876Y-142819001D01*
X58041791Y-142888405D01*
X58041791Y-142888405D01*
G37*
G36*
X69471791Y-142888405D02*
X69800462Y-143024545D01*
X69909181Y-143097189D01*
X70096261Y-143222192D01*
X70347809Y-143473740D01*
X70545457Y-143769541D01*
X70681596Y-144098210D01*
X70751000Y-144447125D01*
X70751000Y-144802877D01*
X70681596Y-145151792D01*
X70545457Y-145480461D01*
X70347809Y-145776262D01*
X70096261Y-146027810D01*
X70096258Y-146027812D01*
X69800462Y-146225457D01*
X69800461Y-146225458D01*
X69800460Y-146225458D01*
X69471791Y-146361597D01*
X69122876Y-146431001D01*
X68767124Y-146431001D01*
X68418209Y-146361597D01*
X68089540Y-146225458D01*
X68089539Y-146225458D01*
X68089538Y-146225457D01*
X67793742Y-146027812D01*
X67793739Y-146027810D01*
X67542191Y-145776262D01*
X67344543Y-145480461D01*
X67208404Y-145151792D01*
X67139000Y-144802877D01*
X67139000Y-144447125D01*
X67208404Y-144098210D01*
X67344543Y-143769541D01*
X67542191Y-143473740D01*
X67793739Y-143222192D01*
X67980819Y-143097189D01*
X68089538Y-143024545D01*
X68418209Y-142888405D01*
X68767124Y-142819001D01*
X69122876Y-142819001D01*
X69471791Y-142888405D01*
X69471791Y-142888405D01*
G37*
G36*
X19596791Y-142763404D02*
X19925462Y-142899544D01*
X20112537Y-143024544D01*
X20221261Y-143097191D01*
X20472809Y-143348739D01*
X20670457Y-143644540D01*
X20806596Y-143973209D01*
X20876000Y-144322124D01*
X20876000Y-144677876D01*
X20806596Y-145026791D01*
X20670457Y-145355460D01*
X20472809Y-145651261D01*
X20221261Y-145902809D01*
X20221258Y-145902811D01*
X19925462Y-146100456D01*
X19925461Y-146100457D01*
X19925460Y-146100457D01*
X19596791Y-146236596D01*
X19247876Y-146306000D01*
X18892124Y-146306000D01*
X18543209Y-146236596D01*
X18214540Y-146100457D01*
X18214539Y-146100457D01*
X18214538Y-146100456D01*
X17918742Y-145902811D01*
X17918739Y-145902809D01*
X17667191Y-145651261D01*
X17469543Y-145355460D01*
X17333404Y-145026791D01*
X17264000Y-144677876D01*
X17264000Y-144322124D01*
X17333404Y-143973209D01*
X17469543Y-143644540D01*
X17667191Y-143348739D01*
X17918739Y-143097191D01*
X18027463Y-143024544D01*
X18214538Y-142899544D01*
X18543209Y-142763404D01*
X18892124Y-142694000D01*
X19247876Y-142694000D01*
X19596791Y-142763404D01*
X19596791Y-142763404D01*
G37*
G36*
X31026791Y-142763404D02*
X31355462Y-142899544D01*
X31542537Y-143024544D01*
X31651261Y-143097191D01*
X31902809Y-143348739D01*
X32100457Y-143644540D01*
X32236596Y-143973209D01*
X32306000Y-144322124D01*
X32306000Y-144677876D01*
X32236596Y-145026791D01*
X32100457Y-145355460D01*
X31902809Y-145651261D01*
X31651261Y-145902809D01*
X31651258Y-145902811D01*
X31355462Y-146100456D01*
X31355461Y-146100457D01*
X31355460Y-146100457D01*
X31026791Y-146236596D01*
X30677876Y-146306000D01*
X30322124Y-146306000D01*
X29973209Y-146236596D01*
X29644540Y-146100457D01*
X29644539Y-146100457D01*
X29644538Y-146100456D01*
X29348742Y-145902811D01*
X29348739Y-145902809D01*
X29097191Y-145651261D01*
X28899543Y-145355460D01*
X28763404Y-145026791D01*
X28694000Y-144677876D01*
X28694000Y-144322124D01*
X28763404Y-143973209D01*
X28899543Y-143644540D01*
X29097191Y-143348739D01*
X29348739Y-143097191D01*
X29457463Y-143024544D01*
X29644538Y-142899544D01*
X29973209Y-142763404D01*
X30322124Y-142694000D01*
X30677876Y-142694000D01*
X31026791Y-142763404D01*
X31026791Y-142763404D01*
G37*
G36*
X71369271Y-140703817D02*
X71534152Y-140772113D01*
X71682542Y-140871265D01*
X71808736Y-140997459D01*
X71907888Y-141145849D01*
X71976184Y-141310730D01*
X72011000Y-141485766D01*
X72011000Y-141664236D01*
X71976184Y-141839272D01*
X71907888Y-142004153D01*
X71808736Y-142152543D01*
X71682542Y-142278737D01*
X71534152Y-142377889D01*
X71369271Y-142446185D01*
X71194235Y-142481001D01*
X71015765Y-142481001D01*
X70840729Y-142446185D01*
X70675848Y-142377889D01*
X70527458Y-142278737D01*
X70401264Y-142152543D01*
X70302112Y-142004153D01*
X70233816Y-141839272D01*
X70199000Y-141664236D01*
X70199000Y-141485766D01*
X70233816Y-141310730D01*
X70302112Y-141145849D01*
X70401264Y-140997459D01*
X70527458Y-140871265D01*
X70675848Y-140772113D01*
X70840729Y-140703817D01*
X71015765Y-140669001D01*
X71194235Y-140669001D01*
X71369271Y-140703817D01*
X71369271Y-140703817D01*
G37*
G36*
X55619271Y-140703817D02*
X55784152Y-140772113D01*
X55932542Y-140871265D01*
X56058736Y-140997459D01*
X56157888Y-141145849D01*
X56226184Y-141310730D01*
X56261000Y-141485766D01*
X56261000Y-141664236D01*
X56226184Y-141839272D01*
X56157888Y-142004153D01*
X56058736Y-142152543D01*
X55932542Y-142278737D01*
X55784152Y-142377889D01*
X55619271Y-142446185D01*
X55444235Y-142481001D01*
X55265765Y-142481001D01*
X55090729Y-142446185D01*
X54925848Y-142377889D01*
X54777458Y-142278737D01*
X54651264Y-142152543D01*
X54552112Y-142004153D01*
X54483816Y-141839272D01*
X54449000Y-141664236D01*
X54449000Y-141485766D01*
X54483816Y-141310730D01*
X54552112Y-141145849D01*
X54651264Y-140997459D01*
X54777458Y-140871265D01*
X54925848Y-140772113D01*
X55090729Y-140703817D01*
X55265765Y-140669001D01*
X55444235Y-140669001D01*
X55619271Y-140703817D01*
X55619271Y-140703817D01*
G37*
G36*
X17174271Y-140578816D02*
X17339152Y-140647112D01*
X17487542Y-140746264D01*
X17613736Y-140872458D01*
X17712888Y-141020848D01*
X17781184Y-141185729D01*
X17816000Y-141360765D01*
X17816000Y-141539235D01*
X17781184Y-141714271D01*
X17712888Y-141879152D01*
X17613736Y-142027542D01*
X17487542Y-142153736D01*
X17339152Y-142252888D01*
X17174271Y-142321184D01*
X16999235Y-142356000D01*
X16820765Y-142356000D01*
X16645729Y-142321184D01*
X16480848Y-142252888D01*
X16332458Y-142153736D01*
X16206264Y-142027542D01*
X16107112Y-141879152D01*
X16038816Y-141714271D01*
X16004000Y-141539235D01*
X16004000Y-141360765D01*
X16038816Y-141185729D01*
X16107112Y-141020848D01*
X16206264Y-140872458D01*
X16332458Y-140746264D01*
X16480848Y-140647112D01*
X16645729Y-140578816D01*
X16820765Y-140544000D01*
X16999235Y-140544000D01*
X17174271Y-140578816D01*
X17174271Y-140578816D01*
G37*
G36*
X32924271Y-140578816D02*
X33089152Y-140647112D01*
X33237542Y-140746264D01*
X33363736Y-140872458D01*
X33462888Y-141020848D01*
X33531184Y-141185729D01*
X33566000Y-141360765D01*
X33566000Y-141539235D01*
X33531184Y-141714271D01*
X33462888Y-141879152D01*
X33363736Y-142027542D01*
X33237542Y-142153736D01*
X33089152Y-142252888D01*
X32924271Y-142321184D01*
X32749235Y-142356000D01*
X32570765Y-142356000D01*
X32395729Y-142321184D01*
X32230848Y-142252888D01*
X32082458Y-142153736D01*
X31956264Y-142027542D01*
X31857112Y-141879152D01*
X31788816Y-141714271D01*
X31754000Y-141539235D01*
X31754000Y-141360765D01*
X31788816Y-141185729D01*
X31857112Y-141020848D01*
X31956264Y-140872458D01*
X32082458Y-140746264D01*
X32230848Y-140647112D01*
X32395729Y-140578816D01*
X32570765Y-140544000D01*
X32749235Y-140544000D01*
X32924271Y-140578816D01*
X32924271Y-140578816D01*
G37*
G36*
X44631552Y-128066331D02*
X44713625Y-128100327D01*
X44713626Y-128100328D01*
X44713629Y-128100329D01*
X44787496Y-128149686D01*
X44787500Y-128149689D01*
X44850311Y-128212500D01*
X44850313Y-128212503D01*
X44850314Y-128212504D01*
X44899671Y-128286371D01*
X44899672Y-128286374D01*
X44906066Y-128295943D01*
X44921612Y-128314885D01*
X44940554Y-128330430D01*
X44962165Y-128341981D01*
X44985614Y-128349094D01*
X45010000Y-128351496D01*
X45034387Y-128349094D01*
X45057836Y-128341981D01*
X45079447Y-128330430D01*
X45098389Y-128314884D01*
X45113934Y-128295943D01*
X45120328Y-128286374D01*
X45120329Y-128286371D01*
X45169686Y-128212504D01*
X45169687Y-128212503D01*
X45169689Y-128212500D01*
X45232500Y-128149689D01*
X45232504Y-128149686D01*
X45306371Y-128100329D01*
X45306374Y-128100328D01*
X45306375Y-128100327D01*
X45388448Y-128066331D01*
X45475579Y-128049000D01*
X45564421Y-128049000D01*
X45651552Y-128066331D01*
X45733625Y-128100327D01*
X45733626Y-128100328D01*
X45733629Y-128100329D01*
X45807496Y-128149686D01*
X45807500Y-128149689D01*
X45870311Y-128212500D01*
X45870313Y-128212503D01*
X45870314Y-128212504D01*
X45919671Y-128286371D01*
X45919672Y-128286374D01*
X45926066Y-128295943D01*
X45941612Y-128314885D01*
X45960554Y-128330430D01*
X45982165Y-128341981D01*
X46005614Y-128349094D01*
X46030000Y-128351496D01*
X46054387Y-128349094D01*
X46077836Y-128341981D01*
X46099447Y-128330430D01*
X46118389Y-128314884D01*
X46133934Y-128295943D01*
X46140328Y-128286374D01*
X46140329Y-128286371D01*
X46189686Y-128212504D01*
X46189687Y-128212503D01*
X46189689Y-128212500D01*
X46252500Y-128149689D01*
X46252504Y-128149686D01*
X46326371Y-128100329D01*
X46326374Y-128100328D01*
X46326375Y-128100327D01*
X46408448Y-128066331D01*
X46495579Y-128049000D01*
X46584421Y-128049000D01*
X46671552Y-128066331D01*
X46753625Y-128100327D01*
X46753626Y-128100328D01*
X46753629Y-128100329D01*
X46827496Y-128149686D01*
X46827500Y-128149689D01*
X46890311Y-128212500D01*
X46890313Y-128212503D01*
X46890314Y-128212504D01*
X46939671Y-128286371D01*
X46939672Y-128286374D01*
X46946066Y-128295943D01*
X46961612Y-128314885D01*
X46980554Y-128330430D01*
X47002165Y-128341981D01*
X47025614Y-128349094D01*
X47050000Y-128351496D01*
X47074387Y-128349094D01*
X47097836Y-128341981D01*
X47119447Y-128330430D01*
X47138389Y-128314884D01*
X47153934Y-128295943D01*
X47160328Y-128286374D01*
X47160329Y-128286371D01*
X47209686Y-128212504D01*
X47209687Y-128212503D01*
X47209689Y-128212500D01*
X47272500Y-128149689D01*
X47272504Y-128149686D01*
X47346371Y-128100329D01*
X47346374Y-128100328D01*
X47346375Y-128100327D01*
X47428448Y-128066331D01*
X47515579Y-128049000D01*
X47604421Y-128049000D01*
X47691552Y-128066331D01*
X47773625Y-128100327D01*
X47773626Y-128100328D01*
X47773629Y-128100329D01*
X47847496Y-128149686D01*
X47847500Y-128149689D01*
X47910311Y-128212500D01*
X47910313Y-128212503D01*
X47910314Y-128212504D01*
X47959671Y-128286371D01*
X47959672Y-128286374D01*
X47966066Y-128295943D01*
X47981612Y-128314885D01*
X48000554Y-128330430D01*
X48022165Y-128341981D01*
X48045614Y-128349094D01*
X48070000Y-128351496D01*
X48094387Y-128349094D01*
X48117836Y-128341981D01*
X48139447Y-128330430D01*
X48158389Y-128314884D01*
X48173934Y-128295943D01*
X48180328Y-128286374D01*
X48180329Y-128286371D01*
X48229686Y-128212504D01*
X48229687Y-128212503D01*
X48229689Y-128212500D01*
X48292500Y-128149689D01*
X48292504Y-128149686D01*
X48366371Y-128100329D01*
X48366374Y-128100328D01*
X48366375Y-128100327D01*
X48448448Y-128066331D01*
X48535579Y-128049000D01*
X48624421Y-128049000D01*
X48711552Y-128066331D01*
X48793625Y-128100327D01*
X48793626Y-128100328D01*
X48793629Y-128100329D01*
X48867496Y-128149686D01*
X48867500Y-128149689D01*
X48930311Y-128212500D01*
X48930313Y-128212503D01*
X48930314Y-128212504D01*
X48979671Y-128286371D01*
X48979672Y-128286374D01*
X48986066Y-128295943D01*
X49001612Y-128314885D01*
X49020554Y-128330430D01*
X49042165Y-128341981D01*
X49065614Y-128349094D01*
X49090000Y-128351496D01*
X49114387Y-128349094D01*
X49137836Y-128341981D01*
X49159447Y-128330430D01*
X49178389Y-128314884D01*
X49193934Y-128295943D01*
X49200328Y-128286374D01*
X49200329Y-128286371D01*
X49249686Y-128212504D01*
X49249687Y-128212503D01*
X49249689Y-128212500D01*
X49312500Y-128149689D01*
X49312504Y-128149686D01*
X49386371Y-128100329D01*
X49386374Y-128100328D01*
X49386375Y-128100327D01*
X49468448Y-128066331D01*
X49555579Y-128049000D01*
X49644421Y-128049000D01*
X49731552Y-128066331D01*
X49813625Y-128100327D01*
X49813626Y-128100328D01*
X49813629Y-128100329D01*
X49887496Y-128149686D01*
X49887500Y-128149689D01*
X49950311Y-128212500D01*
X49950313Y-128212503D01*
X49950314Y-128212504D01*
X49999671Y-128286371D01*
X49999672Y-128286374D01*
X50006066Y-128295943D01*
X50021612Y-128314885D01*
X50040554Y-128330430D01*
X50062165Y-128341981D01*
X50085614Y-128349094D01*
X50110000Y-128351496D01*
X50134387Y-128349094D01*
X50157836Y-128341981D01*
X50179447Y-128330430D01*
X50198389Y-128314884D01*
X50213934Y-128295943D01*
X50220328Y-128286374D01*
X50220329Y-128286371D01*
X50269686Y-128212504D01*
X50269687Y-128212503D01*
X50269689Y-128212500D01*
X50332500Y-128149689D01*
X50332504Y-128149686D01*
X50406371Y-128100329D01*
X50406374Y-128100328D01*
X50406375Y-128100327D01*
X50488448Y-128066331D01*
X50575579Y-128049000D01*
X50664421Y-128049000D01*
X50751552Y-128066331D01*
X50833625Y-128100327D01*
X50833626Y-128100328D01*
X50833629Y-128100329D01*
X50907496Y-128149686D01*
X50907500Y-128149689D01*
X50970311Y-128212500D01*
X50970313Y-128212503D01*
X50970314Y-128212504D01*
X51019671Y-128286371D01*
X51019672Y-128286374D01*
X51026066Y-128295943D01*
X51041612Y-128314885D01*
X51060554Y-128330430D01*
X51082165Y-128341981D01*
X51105614Y-128349094D01*
X51130000Y-128351496D01*
X51154387Y-128349094D01*
X51177836Y-128341981D01*
X51199447Y-128330430D01*
X51218389Y-128314884D01*
X51233934Y-128295943D01*
X51240328Y-128286374D01*
X51240329Y-128286371D01*
X51289686Y-128212504D01*
X51289687Y-128212503D01*
X51289689Y-128212500D01*
X51352500Y-128149689D01*
X51352504Y-128149686D01*
X51426371Y-128100329D01*
X51426374Y-128100328D01*
X51426375Y-128100327D01*
X51508448Y-128066331D01*
X51595579Y-128049000D01*
X51684421Y-128049000D01*
X51771552Y-128066331D01*
X51853625Y-128100327D01*
X51853626Y-128100328D01*
X51853629Y-128100329D01*
X51927496Y-128149686D01*
X51927500Y-128149689D01*
X51990311Y-128212500D01*
X51990313Y-128212503D01*
X51990314Y-128212504D01*
X52039671Y-128286371D01*
X52039672Y-128286374D01*
X52039673Y-128286375D01*
X52073669Y-128368448D01*
X52091000Y-128455579D01*
X52091000Y-128544421D01*
X52073669Y-128631552D01*
X52043636Y-128704057D01*
X52039671Y-128713629D01*
X51990314Y-128787496D01*
X51990311Y-128787500D01*
X51927500Y-128850311D01*
X51927497Y-128850313D01*
X51927496Y-128850314D01*
X51853629Y-128899671D01*
X51853626Y-128899672D01*
X51853625Y-128899673D01*
X51771552Y-128933669D01*
X51684421Y-128951000D01*
X51595579Y-128951000D01*
X51508448Y-128933669D01*
X51426375Y-128899673D01*
X51426374Y-128899672D01*
X51426371Y-128899671D01*
X51352504Y-128850314D01*
X51352503Y-128850313D01*
X51352500Y-128850311D01*
X51289689Y-128787500D01*
X51289686Y-128787496D01*
X51240329Y-128713629D01*
X51240327Y-128713625D01*
X51233934Y-128704057D01*
X51218388Y-128685115D01*
X51199446Y-128669570D01*
X51177835Y-128658019D01*
X51154386Y-128650906D01*
X51130000Y-128648504D01*
X51105613Y-128650906D01*
X51082164Y-128658019D01*
X51060553Y-128669570D01*
X51041611Y-128685116D01*
X51026066Y-128704057D01*
X51019673Y-128713625D01*
X51019671Y-128713629D01*
X50970314Y-128787496D01*
X50970311Y-128787500D01*
X50907500Y-128850311D01*
X50907497Y-128850313D01*
X50907496Y-128850314D01*
X50833629Y-128899671D01*
X50833626Y-128899672D01*
X50833625Y-128899673D01*
X50751552Y-128933669D01*
X50664421Y-128951000D01*
X50575579Y-128951000D01*
X50488448Y-128933669D01*
X50406375Y-128899673D01*
X50406374Y-128899672D01*
X50406371Y-128899671D01*
X50332504Y-128850314D01*
X50332503Y-128850313D01*
X50332500Y-128850311D01*
X50269689Y-128787500D01*
X50269686Y-128787496D01*
X50220329Y-128713629D01*
X50220327Y-128713625D01*
X50213934Y-128704057D01*
X50198388Y-128685115D01*
X50179446Y-128669570D01*
X50157835Y-128658019D01*
X50134386Y-128650906D01*
X50110000Y-128648504D01*
X50085613Y-128650906D01*
X50062164Y-128658019D01*
X50040553Y-128669570D01*
X50021611Y-128685116D01*
X50006066Y-128704057D01*
X49999673Y-128713625D01*
X49999671Y-128713629D01*
X49950314Y-128787496D01*
X49950311Y-128787500D01*
X49887500Y-128850311D01*
X49887497Y-128850313D01*
X49887496Y-128850314D01*
X49813629Y-128899671D01*
X49813626Y-128899672D01*
X49813625Y-128899673D01*
X49731552Y-128933669D01*
X49644421Y-128951000D01*
X49555579Y-128951000D01*
X49468448Y-128933669D01*
X49386375Y-128899673D01*
X49386374Y-128899672D01*
X49386371Y-128899671D01*
X49312504Y-128850314D01*
X49312503Y-128850313D01*
X49312500Y-128850311D01*
X49249689Y-128787500D01*
X49249686Y-128787496D01*
X49200329Y-128713629D01*
X49200327Y-128713625D01*
X49193934Y-128704057D01*
X49178388Y-128685115D01*
X49159446Y-128669570D01*
X49137835Y-128658019D01*
X49114386Y-128650906D01*
X49090000Y-128648504D01*
X49065613Y-128650906D01*
X49042164Y-128658019D01*
X49020553Y-128669570D01*
X49001611Y-128685116D01*
X48986066Y-128704057D01*
X48979673Y-128713625D01*
X48979671Y-128713629D01*
X48930314Y-128787496D01*
X48930311Y-128787500D01*
X48867500Y-128850311D01*
X48867497Y-128850313D01*
X48867496Y-128850314D01*
X48793629Y-128899671D01*
X48793626Y-128899672D01*
X48793625Y-128899673D01*
X48711552Y-128933669D01*
X48624421Y-128951000D01*
X48535579Y-128951000D01*
X48448448Y-128933669D01*
X48366375Y-128899673D01*
X48366374Y-128899672D01*
X48366371Y-128899671D01*
X48292504Y-128850314D01*
X48292503Y-128850313D01*
X48292500Y-128850311D01*
X48229689Y-128787500D01*
X48229686Y-128787496D01*
X48180329Y-128713629D01*
X48180327Y-128713625D01*
X48173934Y-128704057D01*
X48158388Y-128685115D01*
X48139446Y-128669570D01*
X48117835Y-128658019D01*
X48094386Y-128650906D01*
X48070000Y-128648504D01*
X48045613Y-128650906D01*
X48022164Y-128658019D01*
X48000553Y-128669570D01*
X47981611Y-128685116D01*
X47966066Y-128704057D01*
X47959673Y-128713625D01*
X47959671Y-128713629D01*
X47910314Y-128787496D01*
X47910311Y-128787500D01*
X47847500Y-128850311D01*
X47847497Y-128850313D01*
X47847496Y-128850314D01*
X47773629Y-128899671D01*
X47773626Y-128899672D01*
X47773625Y-128899673D01*
X47691552Y-128933669D01*
X47604421Y-128951000D01*
X47515579Y-128951000D01*
X47428448Y-128933669D01*
X47346375Y-128899673D01*
X47346374Y-128899672D01*
X47346371Y-128899671D01*
X47272504Y-128850314D01*
X47272503Y-128850313D01*
X47272500Y-128850311D01*
X47209689Y-128787500D01*
X47209686Y-128787496D01*
X47160329Y-128713629D01*
X47160327Y-128713625D01*
X47153934Y-128704057D01*
X47138388Y-128685115D01*
X47119446Y-128669570D01*
X47097835Y-128658019D01*
X47074386Y-128650906D01*
X47050000Y-128648504D01*
X47025613Y-128650906D01*
X47002164Y-128658019D01*
X46980553Y-128669570D01*
X46961611Y-128685116D01*
X46946066Y-128704057D01*
X46939673Y-128713625D01*
X46939671Y-128713629D01*
X46890314Y-128787496D01*
X46890311Y-128787500D01*
X46827500Y-128850311D01*
X46827497Y-128850313D01*
X46827496Y-128850314D01*
X46753629Y-128899671D01*
X46753626Y-128899672D01*
X46753625Y-128899673D01*
X46671552Y-128933669D01*
X46584421Y-128951000D01*
X46495579Y-128951000D01*
X46408448Y-128933669D01*
X46326375Y-128899673D01*
X46326374Y-128899672D01*
X46326371Y-128899671D01*
X46252504Y-128850314D01*
X46252503Y-128850313D01*
X46252500Y-128850311D01*
X46189689Y-128787500D01*
X46189686Y-128787496D01*
X46140329Y-128713629D01*
X46140327Y-128713625D01*
X46133934Y-128704057D01*
X46118388Y-128685115D01*
X46099446Y-128669570D01*
X46077835Y-128658019D01*
X46054386Y-128650906D01*
X46030000Y-128648504D01*
X46005613Y-128650906D01*
X45982164Y-128658019D01*
X45960553Y-128669570D01*
X45941611Y-128685116D01*
X45926066Y-128704057D01*
X45919673Y-128713625D01*
X45919671Y-128713629D01*
X45870314Y-128787496D01*
X45870311Y-128787500D01*
X45807500Y-128850311D01*
X45807497Y-128850313D01*
X45807496Y-128850314D01*
X45733629Y-128899671D01*
X45733626Y-128899672D01*
X45733625Y-128899673D01*
X45651552Y-128933669D01*
X45564421Y-128951000D01*
X45475579Y-128951000D01*
X45388448Y-128933669D01*
X45306375Y-128899673D01*
X45306374Y-128899672D01*
X45306371Y-128899671D01*
X45232504Y-128850314D01*
X45232503Y-128850313D01*
X45232500Y-128850311D01*
X45169689Y-128787500D01*
X45169686Y-128787496D01*
X45120329Y-128713629D01*
X45120327Y-128713625D01*
X45113934Y-128704057D01*
X45098388Y-128685115D01*
X45079446Y-128669570D01*
X45057835Y-128658019D01*
X45034386Y-128650906D01*
X45010000Y-128648504D01*
X44985613Y-128650906D01*
X44962164Y-128658019D01*
X44940553Y-128669570D01*
X44921611Y-128685116D01*
X44906066Y-128704057D01*
X44899673Y-128713625D01*
X44899671Y-128713629D01*
X44850314Y-128787496D01*
X44850311Y-128787500D01*
X44787500Y-128850311D01*
X44787497Y-128850313D01*
X44787496Y-128850314D01*
X44713629Y-128899671D01*
X44713626Y-128899672D01*
X44713625Y-128899673D01*
X44631552Y-128933669D01*
X44544421Y-128951000D01*
X44455579Y-128951000D01*
X44368448Y-128933669D01*
X44286375Y-128899673D01*
X44286374Y-128899672D01*
X44286371Y-128899671D01*
X44212504Y-128850314D01*
X44212503Y-128850313D01*
X44212500Y-128850311D01*
X44149689Y-128787500D01*
X44149686Y-128787496D01*
X44100329Y-128713629D01*
X44096364Y-128704057D01*
X44066331Y-128631552D01*
X44049000Y-128544421D01*
X44049000Y-128455579D01*
X44066331Y-128368448D01*
X44100327Y-128286375D01*
X44100328Y-128286374D01*
X44100329Y-128286371D01*
X44149686Y-128212504D01*
X44149687Y-128212503D01*
X44149689Y-128212500D01*
X44212500Y-128149689D01*
X44212504Y-128149686D01*
X44286371Y-128100329D01*
X44286374Y-128100328D01*
X44286375Y-128100327D01*
X44368448Y-128066331D01*
X44455579Y-128049000D01*
X44544421Y-128049000D01*
X44631552Y-128066331D01*
X44631552Y-128066331D01*
G37*
G36*
X23689890Y-119874017D02*
X23808361Y-119923089D01*
X23914992Y-119994338D01*
X24005662Y-120085008D01*
X24076911Y-120191639D01*
X24125983Y-120310110D01*
X24151000Y-120435881D01*
X24151000Y-120564119D01*
X24125983Y-120689890D01*
X24076911Y-120808361D01*
X24005662Y-120914992D01*
X23914992Y-121005662D01*
X23808361Y-121076911D01*
X23689890Y-121125983D01*
X23564119Y-121151000D01*
X23435881Y-121151000D01*
X23310110Y-121125983D01*
X23191639Y-121076911D01*
X23085008Y-121005662D01*
X22994338Y-120914992D01*
X22923089Y-120808361D01*
X22874017Y-120689890D01*
X22849000Y-120564119D01*
X22849000Y-120435881D01*
X22874017Y-120310110D01*
X22923089Y-120191639D01*
X22994338Y-120085008D01*
X23085008Y-119994338D01*
X23191639Y-119923089D01*
X23310110Y-119874017D01*
X23435881Y-119849000D01*
X23564119Y-119849000D01*
X23689890Y-119874017D01*
X23689890Y-119874017D01*
G37*
G36*
X23689890Y-118074017D02*
X23808361Y-118123089D01*
X23914992Y-118194338D01*
X24005662Y-118285008D01*
X24076911Y-118391639D01*
X24125983Y-118510110D01*
X24151000Y-118635881D01*
X24151000Y-118764119D01*
X24125983Y-118889890D01*
X24076911Y-119008361D01*
X24005662Y-119114992D01*
X23914992Y-119205662D01*
X23808361Y-119276911D01*
X23689890Y-119325983D01*
X23564119Y-119351000D01*
X23435881Y-119351000D01*
X23310110Y-119325983D01*
X23191639Y-119276911D01*
X23085008Y-119205662D01*
X22994338Y-119114992D01*
X22923089Y-119008361D01*
X22874017Y-118889890D01*
X22849000Y-118764119D01*
X22849000Y-118635881D01*
X22874017Y-118510110D01*
X22923089Y-118391639D01*
X22994338Y-118285008D01*
X23085008Y-118194338D01*
X23191639Y-118123089D01*
X23310110Y-118074017D01*
X23435881Y-118049000D01*
X23564119Y-118049000D01*
X23689890Y-118074017D01*
X23689890Y-118074017D01*
G37*
G36*
X44631552Y-98066331D02*
X44713625Y-98100327D01*
X44713626Y-98100328D01*
X44713629Y-98100329D01*
X44787496Y-98149686D01*
X44787500Y-98149689D01*
X44850311Y-98212500D01*
X44850313Y-98212503D01*
X44850314Y-98212504D01*
X44899671Y-98286371D01*
X44899672Y-98286374D01*
X44906066Y-98295943D01*
X44921612Y-98314885D01*
X44940554Y-98330430D01*
X44962165Y-98341981D01*
X44985614Y-98349094D01*
X45010000Y-98351496D01*
X45034387Y-98349094D01*
X45057836Y-98341981D01*
X45079447Y-98330430D01*
X45098389Y-98314884D01*
X45113934Y-98295943D01*
X45120328Y-98286374D01*
X45120329Y-98286371D01*
X45169686Y-98212504D01*
X45169687Y-98212503D01*
X45169689Y-98212500D01*
X45232500Y-98149689D01*
X45232504Y-98149686D01*
X45306371Y-98100329D01*
X45306374Y-98100328D01*
X45306375Y-98100327D01*
X45388448Y-98066331D01*
X45475579Y-98049000D01*
X45564421Y-98049000D01*
X45651552Y-98066331D01*
X45733625Y-98100327D01*
X45733626Y-98100328D01*
X45733629Y-98100329D01*
X45807496Y-98149686D01*
X45807500Y-98149689D01*
X45870311Y-98212500D01*
X45870313Y-98212503D01*
X45870314Y-98212504D01*
X45919671Y-98286371D01*
X45919672Y-98286374D01*
X45926066Y-98295943D01*
X45941612Y-98314885D01*
X45960554Y-98330430D01*
X45982165Y-98341981D01*
X46005614Y-98349094D01*
X46030000Y-98351496D01*
X46054387Y-98349094D01*
X46077836Y-98341981D01*
X46099447Y-98330430D01*
X46118389Y-98314884D01*
X46133934Y-98295943D01*
X46140328Y-98286374D01*
X46140329Y-98286371D01*
X46189686Y-98212504D01*
X46189687Y-98212503D01*
X46189689Y-98212500D01*
X46252500Y-98149689D01*
X46252504Y-98149686D01*
X46326371Y-98100329D01*
X46326374Y-98100328D01*
X46326375Y-98100327D01*
X46408448Y-98066331D01*
X46495579Y-98049000D01*
X46584421Y-98049000D01*
X46671552Y-98066331D01*
X46753625Y-98100327D01*
X46753626Y-98100328D01*
X46753629Y-98100329D01*
X46827496Y-98149686D01*
X46827500Y-98149689D01*
X46890311Y-98212500D01*
X46890313Y-98212503D01*
X46890314Y-98212504D01*
X46939671Y-98286371D01*
X46939672Y-98286374D01*
X46946066Y-98295943D01*
X46961612Y-98314885D01*
X46980554Y-98330430D01*
X47002165Y-98341981D01*
X47025614Y-98349094D01*
X47050000Y-98351496D01*
X47074387Y-98349094D01*
X47097836Y-98341981D01*
X47119447Y-98330430D01*
X47138389Y-98314884D01*
X47153934Y-98295943D01*
X47160328Y-98286374D01*
X47160329Y-98286371D01*
X47209686Y-98212504D01*
X47209687Y-98212503D01*
X47209689Y-98212500D01*
X47272500Y-98149689D01*
X47272504Y-98149686D01*
X47346371Y-98100329D01*
X47346374Y-98100328D01*
X47346375Y-98100327D01*
X47428448Y-98066331D01*
X47515579Y-98049000D01*
X47604421Y-98049000D01*
X47691552Y-98066331D01*
X47773625Y-98100327D01*
X47773626Y-98100328D01*
X47773629Y-98100329D01*
X47847496Y-98149686D01*
X47847500Y-98149689D01*
X47910311Y-98212500D01*
X47910313Y-98212503D01*
X47910314Y-98212504D01*
X47959671Y-98286371D01*
X47959672Y-98286374D01*
X47966066Y-98295943D01*
X47981612Y-98314885D01*
X48000554Y-98330430D01*
X48022165Y-98341981D01*
X48045614Y-98349094D01*
X48070000Y-98351496D01*
X48094387Y-98349094D01*
X48117836Y-98341981D01*
X48139447Y-98330430D01*
X48158389Y-98314884D01*
X48173934Y-98295943D01*
X48180328Y-98286374D01*
X48180329Y-98286371D01*
X48229686Y-98212504D01*
X48229687Y-98212503D01*
X48229689Y-98212500D01*
X48292500Y-98149689D01*
X48292504Y-98149686D01*
X48366371Y-98100329D01*
X48366374Y-98100328D01*
X48366375Y-98100327D01*
X48448448Y-98066331D01*
X48535579Y-98049000D01*
X48624421Y-98049000D01*
X48711552Y-98066331D01*
X48793625Y-98100327D01*
X48793626Y-98100328D01*
X48793629Y-98100329D01*
X48867496Y-98149686D01*
X48867500Y-98149689D01*
X48930311Y-98212500D01*
X48930313Y-98212503D01*
X48930314Y-98212504D01*
X48979671Y-98286371D01*
X48979672Y-98286374D01*
X48986066Y-98295943D01*
X49001612Y-98314885D01*
X49020554Y-98330430D01*
X49042165Y-98341981D01*
X49065614Y-98349094D01*
X49090000Y-98351496D01*
X49114387Y-98349094D01*
X49137836Y-98341981D01*
X49159447Y-98330430D01*
X49178389Y-98314884D01*
X49193934Y-98295943D01*
X49200328Y-98286374D01*
X49200329Y-98286371D01*
X49249686Y-98212504D01*
X49249687Y-98212503D01*
X49249689Y-98212500D01*
X49312500Y-98149689D01*
X49312504Y-98149686D01*
X49386371Y-98100329D01*
X49386374Y-98100328D01*
X49386375Y-98100327D01*
X49468448Y-98066331D01*
X49555579Y-98049000D01*
X49644421Y-98049000D01*
X49731552Y-98066331D01*
X49813625Y-98100327D01*
X49813626Y-98100328D01*
X49813629Y-98100329D01*
X49887496Y-98149686D01*
X49887500Y-98149689D01*
X49950311Y-98212500D01*
X49950313Y-98212503D01*
X49950314Y-98212504D01*
X49999671Y-98286371D01*
X49999672Y-98286374D01*
X50006066Y-98295943D01*
X50021612Y-98314885D01*
X50040554Y-98330430D01*
X50062165Y-98341981D01*
X50085614Y-98349094D01*
X50110000Y-98351496D01*
X50134387Y-98349094D01*
X50157836Y-98341981D01*
X50179447Y-98330430D01*
X50198389Y-98314884D01*
X50213934Y-98295943D01*
X50220328Y-98286374D01*
X50220329Y-98286371D01*
X50269686Y-98212504D01*
X50269687Y-98212503D01*
X50269689Y-98212500D01*
X50332500Y-98149689D01*
X50332504Y-98149686D01*
X50406371Y-98100329D01*
X50406374Y-98100328D01*
X50406375Y-98100327D01*
X50488448Y-98066331D01*
X50575579Y-98049000D01*
X50664421Y-98049000D01*
X50751552Y-98066331D01*
X50833625Y-98100327D01*
X50833626Y-98100328D01*
X50833629Y-98100329D01*
X50907496Y-98149686D01*
X50907500Y-98149689D01*
X50970311Y-98212500D01*
X50970313Y-98212503D01*
X50970314Y-98212504D01*
X51019671Y-98286371D01*
X51019672Y-98286374D01*
X51026066Y-98295943D01*
X51041612Y-98314885D01*
X51060554Y-98330430D01*
X51082165Y-98341981D01*
X51105614Y-98349094D01*
X51130000Y-98351496D01*
X51154387Y-98349094D01*
X51177836Y-98341981D01*
X51199447Y-98330430D01*
X51218389Y-98314884D01*
X51233934Y-98295943D01*
X51240328Y-98286374D01*
X51240329Y-98286371D01*
X51289686Y-98212504D01*
X51289687Y-98212503D01*
X51289689Y-98212500D01*
X51352500Y-98149689D01*
X51352504Y-98149686D01*
X51426371Y-98100329D01*
X51426374Y-98100328D01*
X51426375Y-98100327D01*
X51508448Y-98066331D01*
X51595579Y-98049000D01*
X51684421Y-98049000D01*
X51771552Y-98066331D01*
X51853625Y-98100327D01*
X51853626Y-98100328D01*
X51853629Y-98100329D01*
X51927496Y-98149686D01*
X51927500Y-98149689D01*
X51990311Y-98212500D01*
X51990313Y-98212503D01*
X51990314Y-98212504D01*
X52039671Y-98286371D01*
X52039672Y-98286374D01*
X52039673Y-98286375D01*
X52073669Y-98368448D01*
X52091000Y-98455579D01*
X52091000Y-98544421D01*
X52073669Y-98631552D01*
X52043636Y-98704057D01*
X52039671Y-98713629D01*
X51990314Y-98787496D01*
X51990311Y-98787500D01*
X51927500Y-98850311D01*
X51927497Y-98850313D01*
X51927496Y-98850314D01*
X51853629Y-98899671D01*
X51853626Y-98899672D01*
X51853625Y-98899673D01*
X51771552Y-98933669D01*
X51684421Y-98951000D01*
X51595579Y-98951000D01*
X51508448Y-98933669D01*
X51426375Y-98899673D01*
X51426374Y-98899672D01*
X51426371Y-98899671D01*
X51352504Y-98850314D01*
X51352503Y-98850313D01*
X51352500Y-98850311D01*
X51289689Y-98787500D01*
X51289686Y-98787496D01*
X51240329Y-98713629D01*
X51240327Y-98713625D01*
X51233934Y-98704057D01*
X51218388Y-98685115D01*
X51199446Y-98669570D01*
X51177835Y-98658019D01*
X51154386Y-98650906D01*
X51130000Y-98648504D01*
X51105613Y-98650906D01*
X51082164Y-98658019D01*
X51060553Y-98669570D01*
X51041611Y-98685116D01*
X51026066Y-98704057D01*
X51019673Y-98713625D01*
X51019671Y-98713629D01*
X50970314Y-98787496D01*
X50970311Y-98787500D01*
X50907500Y-98850311D01*
X50907497Y-98850313D01*
X50907496Y-98850314D01*
X50833629Y-98899671D01*
X50833626Y-98899672D01*
X50833625Y-98899673D01*
X50751552Y-98933669D01*
X50664421Y-98951000D01*
X50575579Y-98951000D01*
X50488448Y-98933669D01*
X50406375Y-98899673D01*
X50406374Y-98899672D01*
X50406371Y-98899671D01*
X50332504Y-98850314D01*
X50332503Y-98850313D01*
X50332500Y-98850311D01*
X50269689Y-98787500D01*
X50269686Y-98787496D01*
X50220329Y-98713629D01*
X50220327Y-98713625D01*
X50213934Y-98704057D01*
X50198388Y-98685115D01*
X50179446Y-98669570D01*
X50157835Y-98658019D01*
X50134386Y-98650906D01*
X50110000Y-98648504D01*
X50085613Y-98650906D01*
X50062164Y-98658019D01*
X50040553Y-98669570D01*
X50021611Y-98685116D01*
X50006066Y-98704057D01*
X49999673Y-98713625D01*
X49999671Y-98713629D01*
X49950314Y-98787496D01*
X49950311Y-98787500D01*
X49887500Y-98850311D01*
X49887497Y-98850313D01*
X49887496Y-98850314D01*
X49813629Y-98899671D01*
X49813626Y-98899672D01*
X49813625Y-98899673D01*
X49731552Y-98933669D01*
X49644421Y-98951000D01*
X49555579Y-98951000D01*
X49468448Y-98933669D01*
X49386375Y-98899673D01*
X49386374Y-98899672D01*
X49386371Y-98899671D01*
X49312504Y-98850314D01*
X49312503Y-98850313D01*
X49312500Y-98850311D01*
X49249689Y-98787500D01*
X49249686Y-98787496D01*
X49200329Y-98713629D01*
X49200327Y-98713625D01*
X49193934Y-98704057D01*
X49178388Y-98685115D01*
X49159446Y-98669570D01*
X49137835Y-98658019D01*
X49114386Y-98650906D01*
X49090000Y-98648504D01*
X49065613Y-98650906D01*
X49042164Y-98658019D01*
X49020553Y-98669570D01*
X49001611Y-98685116D01*
X48986066Y-98704057D01*
X48979673Y-98713625D01*
X48979671Y-98713629D01*
X48930314Y-98787496D01*
X48930311Y-98787500D01*
X48867500Y-98850311D01*
X48867497Y-98850313D01*
X48867496Y-98850314D01*
X48793629Y-98899671D01*
X48793626Y-98899672D01*
X48793625Y-98899673D01*
X48711552Y-98933669D01*
X48624421Y-98951000D01*
X48535579Y-98951000D01*
X48448448Y-98933669D01*
X48366375Y-98899673D01*
X48366374Y-98899672D01*
X48366371Y-98899671D01*
X48292504Y-98850314D01*
X48292503Y-98850313D01*
X48292500Y-98850311D01*
X48229689Y-98787500D01*
X48229686Y-98787496D01*
X48180329Y-98713629D01*
X48180327Y-98713625D01*
X48173934Y-98704057D01*
X48158388Y-98685115D01*
X48139446Y-98669570D01*
X48117835Y-98658019D01*
X48094386Y-98650906D01*
X48070000Y-98648504D01*
X48045613Y-98650906D01*
X48022164Y-98658019D01*
X48000553Y-98669570D01*
X47981611Y-98685116D01*
X47966066Y-98704057D01*
X47959673Y-98713625D01*
X47959671Y-98713629D01*
X47910314Y-98787496D01*
X47910311Y-98787500D01*
X47847500Y-98850311D01*
X47847497Y-98850313D01*
X47847496Y-98850314D01*
X47773629Y-98899671D01*
X47773626Y-98899672D01*
X47773625Y-98899673D01*
X47691552Y-98933669D01*
X47604421Y-98951000D01*
X47515579Y-98951000D01*
X47428448Y-98933669D01*
X47346375Y-98899673D01*
X47346374Y-98899672D01*
X47346371Y-98899671D01*
X47272504Y-98850314D01*
X47272503Y-98850313D01*
X47272500Y-98850311D01*
X47209689Y-98787500D01*
X47209686Y-98787496D01*
X47160329Y-98713629D01*
X47160327Y-98713625D01*
X47153934Y-98704057D01*
X47138388Y-98685115D01*
X47119446Y-98669570D01*
X47097835Y-98658019D01*
X47074386Y-98650906D01*
X47050000Y-98648504D01*
X47025613Y-98650906D01*
X47002164Y-98658019D01*
X46980553Y-98669570D01*
X46961611Y-98685116D01*
X46946066Y-98704057D01*
X46939673Y-98713625D01*
X46939671Y-98713629D01*
X46890314Y-98787496D01*
X46890311Y-98787500D01*
X46827500Y-98850311D01*
X46827497Y-98850313D01*
X46827496Y-98850314D01*
X46753629Y-98899671D01*
X46753626Y-98899672D01*
X46753625Y-98899673D01*
X46671552Y-98933669D01*
X46584421Y-98951000D01*
X46495579Y-98951000D01*
X46408448Y-98933669D01*
X46326375Y-98899673D01*
X46326374Y-98899672D01*
X46326371Y-98899671D01*
X46252504Y-98850314D01*
X46252503Y-98850313D01*
X46252500Y-98850311D01*
X46189689Y-98787500D01*
X46189686Y-98787496D01*
X46140329Y-98713629D01*
X46140327Y-98713625D01*
X46133934Y-98704057D01*
X46118388Y-98685115D01*
X46099446Y-98669570D01*
X46077835Y-98658019D01*
X46054386Y-98650906D01*
X46030000Y-98648504D01*
X46005613Y-98650906D01*
X45982164Y-98658019D01*
X45960553Y-98669570D01*
X45941611Y-98685116D01*
X45926066Y-98704057D01*
X45919673Y-98713625D01*
X45919671Y-98713629D01*
X45870314Y-98787496D01*
X45870311Y-98787500D01*
X45807500Y-98850311D01*
X45807497Y-98850313D01*
X45807496Y-98850314D01*
X45733629Y-98899671D01*
X45733626Y-98899672D01*
X45733625Y-98899673D01*
X45651552Y-98933669D01*
X45564421Y-98951000D01*
X45475579Y-98951000D01*
X45388448Y-98933669D01*
X45306375Y-98899673D01*
X45306374Y-98899672D01*
X45306371Y-98899671D01*
X45232504Y-98850314D01*
X45232503Y-98850313D01*
X45232500Y-98850311D01*
X45169689Y-98787500D01*
X45169686Y-98787496D01*
X45120329Y-98713629D01*
X45120327Y-98713625D01*
X45113934Y-98704057D01*
X45098388Y-98685115D01*
X45079446Y-98669570D01*
X45057835Y-98658019D01*
X45034386Y-98650906D01*
X45010000Y-98648504D01*
X44985613Y-98650906D01*
X44962164Y-98658019D01*
X44940553Y-98669570D01*
X44921611Y-98685116D01*
X44906066Y-98704057D01*
X44899673Y-98713625D01*
X44899671Y-98713629D01*
X44850314Y-98787496D01*
X44850311Y-98787500D01*
X44787500Y-98850311D01*
X44787497Y-98850313D01*
X44787496Y-98850314D01*
X44713629Y-98899671D01*
X44713626Y-98899672D01*
X44713625Y-98899673D01*
X44631552Y-98933669D01*
X44544421Y-98951000D01*
X44455579Y-98951000D01*
X44368448Y-98933669D01*
X44286375Y-98899673D01*
X44286374Y-98899672D01*
X44286371Y-98899671D01*
X44212504Y-98850314D01*
X44212503Y-98850313D01*
X44212500Y-98850311D01*
X44149689Y-98787500D01*
X44149686Y-98787496D01*
X44100329Y-98713629D01*
X44096364Y-98704057D01*
X44066331Y-98631552D01*
X44049000Y-98544421D01*
X44049000Y-98455579D01*
X44066331Y-98368448D01*
X44100327Y-98286375D01*
X44100328Y-98286374D01*
X44100329Y-98286371D01*
X44149686Y-98212504D01*
X44149687Y-98212503D01*
X44149689Y-98212500D01*
X44212500Y-98149689D01*
X44212504Y-98149686D01*
X44286371Y-98100329D01*
X44286374Y-98100328D01*
X44286375Y-98100327D01*
X44368448Y-98066331D01*
X44455579Y-98049000D01*
X44544421Y-98049000D01*
X44631552Y-98066331D01*
X44631552Y-98066331D01*
G37*
G36*
X23689890Y-89874017D02*
X23808361Y-89923089D01*
X23914992Y-89994338D01*
X24005662Y-90085008D01*
X24076911Y-90191639D01*
X24125983Y-90310110D01*
X24151000Y-90435881D01*
X24151000Y-90564119D01*
X24125983Y-90689890D01*
X24076911Y-90808361D01*
X24005662Y-90914992D01*
X23914992Y-91005662D01*
X23808361Y-91076911D01*
X23689890Y-91125983D01*
X23564119Y-91151000D01*
X23435881Y-91151000D01*
X23310110Y-91125983D01*
X23191639Y-91076911D01*
X23085008Y-91005662D01*
X22994338Y-90914992D01*
X22923089Y-90808361D01*
X22874017Y-90689890D01*
X22849000Y-90564119D01*
X22849000Y-90435881D01*
X22874017Y-90310110D01*
X22923089Y-90191639D01*
X22994338Y-90085008D01*
X23085008Y-89994338D01*
X23191639Y-89923089D01*
X23310110Y-89874017D01*
X23435881Y-89849000D01*
X23564119Y-89849000D01*
X23689890Y-89874017D01*
X23689890Y-89874017D01*
G37*
G36*
X23689890Y-88074017D02*
X23808361Y-88123089D01*
X23914992Y-88194338D01*
X24005662Y-88285008D01*
X24076911Y-88391639D01*
X24125983Y-88510110D01*
X24151000Y-88635881D01*
X24151000Y-88764119D01*
X24125983Y-88889890D01*
X24076911Y-89008361D01*
X24005662Y-89114992D01*
X23914992Y-89205662D01*
X23808361Y-89276911D01*
X23689890Y-89325983D01*
X23564119Y-89351000D01*
X23435881Y-89351000D01*
X23310110Y-89325983D01*
X23191639Y-89276911D01*
X23085008Y-89205662D01*
X22994338Y-89114992D01*
X22923089Y-89008361D01*
X22874017Y-88889890D01*
X22849000Y-88764119D01*
X22849000Y-88635881D01*
X22874017Y-88510110D01*
X22923089Y-88391639D01*
X22994338Y-88285008D01*
X23085008Y-88194338D01*
X23191639Y-88123089D01*
X23310110Y-88074017D01*
X23435881Y-88049000D01*
X23564119Y-88049000D01*
X23689890Y-88074017D01*
X23689890Y-88074017D01*
G37*
G36*
X44631552Y-68066331D02*
X44713625Y-68100327D01*
X44713626Y-68100328D01*
X44713629Y-68100329D01*
X44787496Y-68149686D01*
X44787500Y-68149689D01*
X44850311Y-68212500D01*
X44850313Y-68212503D01*
X44850314Y-68212504D01*
X44899671Y-68286371D01*
X44899672Y-68286374D01*
X44906066Y-68295943D01*
X44921612Y-68314885D01*
X44940554Y-68330430D01*
X44962165Y-68341981D01*
X44985614Y-68349094D01*
X45010000Y-68351496D01*
X45034387Y-68349094D01*
X45057836Y-68341981D01*
X45079447Y-68330430D01*
X45098389Y-68314884D01*
X45113934Y-68295943D01*
X45120328Y-68286374D01*
X45120329Y-68286371D01*
X45169686Y-68212504D01*
X45169687Y-68212503D01*
X45169689Y-68212500D01*
X45232500Y-68149689D01*
X45232504Y-68149686D01*
X45306371Y-68100329D01*
X45306374Y-68100328D01*
X45306375Y-68100327D01*
X45388448Y-68066331D01*
X45475579Y-68049000D01*
X45564421Y-68049000D01*
X45651552Y-68066331D01*
X45733625Y-68100327D01*
X45733626Y-68100328D01*
X45733629Y-68100329D01*
X45807496Y-68149686D01*
X45807500Y-68149689D01*
X45870311Y-68212500D01*
X45870313Y-68212503D01*
X45870314Y-68212504D01*
X45919671Y-68286371D01*
X45919672Y-68286374D01*
X45926066Y-68295943D01*
X45941612Y-68314885D01*
X45960554Y-68330430D01*
X45982165Y-68341981D01*
X46005614Y-68349094D01*
X46030000Y-68351496D01*
X46054387Y-68349094D01*
X46077836Y-68341981D01*
X46099447Y-68330430D01*
X46118389Y-68314884D01*
X46133934Y-68295943D01*
X46140328Y-68286374D01*
X46140329Y-68286371D01*
X46189686Y-68212504D01*
X46189687Y-68212503D01*
X46189689Y-68212500D01*
X46252500Y-68149689D01*
X46252504Y-68149686D01*
X46326371Y-68100329D01*
X46326374Y-68100328D01*
X46326375Y-68100327D01*
X46408448Y-68066331D01*
X46495579Y-68049000D01*
X46584421Y-68049000D01*
X46671552Y-68066331D01*
X46753625Y-68100327D01*
X46753626Y-68100328D01*
X46753629Y-68100329D01*
X46827496Y-68149686D01*
X46827500Y-68149689D01*
X46890311Y-68212500D01*
X46890313Y-68212503D01*
X46890314Y-68212504D01*
X46939671Y-68286371D01*
X46939672Y-68286374D01*
X46946066Y-68295943D01*
X46961612Y-68314885D01*
X46980554Y-68330430D01*
X47002165Y-68341981D01*
X47025614Y-68349094D01*
X47050000Y-68351496D01*
X47074387Y-68349094D01*
X47097836Y-68341981D01*
X47119447Y-68330430D01*
X47138389Y-68314884D01*
X47153934Y-68295943D01*
X47160328Y-68286374D01*
X47160329Y-68286371D01*
X47209686Y-68212504D01*
X47209687Y-68212503D01*
X47209689Y-68212500D01*
X47272500Y-68149689D01*
X47272504Y-68149686D01*
X47346371Y-68100329D01*
X47346374Y-68100328D01*
X47346375Y-68100327D01*
X47428448Y-68066331D01*
X47515579Y-68049000D01*
X47604421Y-68049000D01*
X47691552Y-68066331D01*
X47773625Y-68100327D01*
X47773626Y-68100328D01*
X47773629Y-68100329D01*
X47847496Y-68149686D01*
X47847500Y-68149689D01*
X47910311Y-68212500D01*
X47910313Y-68212503D01*
X47910314Y-68212504D01*
X47959671Y-68286371D01*
X47959672Y-68286374D01*
X47966066Y-68295943D01*
X47981612Y-68314885D01*
X48000554Y-68330430D01*
X48022165Y-68341981D01*
X48045614Y-68349094D01*
X48070000Y-68351496D01*
X48094387Y-68349094D01*
X48117836Y-68341981D01*
X48139447Y-68330430D01*
X48158389Y-68314884D01*
X48173934Y-68295943D01*
X48180328Y-68286374D01*
X48180329Y-68286371D01*
X48229686Y-68212504D01*
X48229687Y-68212503D01*
X48229689Y-68212500D01*
X48292500Y-68149689D01*
X48292504Y-68149686D01*
X48366371Y-68100329D01*
X48366374Y-68100328D01*
X48366375Y-68100327D01*
X48448448Y-68066331D01*
X48535579Y-68049000D01*
X48624421Y-68049000D01*
X48711552Y-68066331D01*
X48793625Y-68100327D01*
X48793626Y-68100328D01*
X48793629Y-68100329D01*
X48867496Y-68149686D01*
X48867500Y-68149689D01*
X48930311Y-68212500D01*
X48930313Y-68212503D01*
X48930314Y-68212504D01*
X48979671Y-68286371D01*
X48979672Y-68286374D01*
X48986066Y-68295943D01*
X49001612Y-68314885D01*
X49020554Y-68330430D01*
X49042165Y-68341981D01*
X49065614Y-68349094D01*
X49090000Y-68351496D01*
X49114387Y-68349094D01*
X49137836Y-68341981D01*
X49159447Y-68330430D01*
X49178389Y-68314884D01*
X49193934Y-68295943D01*
X49200328Y-68286374D01*
X49200329Y-68286371D01*
X49249686Y-68212504D01*
X49249687Y-68212503D01*
X49249689Y-68212500D01*
X49312500Y-68149689D01*
X49312504Y-68149686D01*
X49386371Y-68100329D01*
X49386374Y-68100328D01*
X49386375Y-68100327D01*
X49468448Y-68066331D01*
X49555579Y-68049000D01*
X49644421Y-68049000D01*
X49731552Y-68066331D01*
X49813625Y-68100327D01*
X49813626Y-68100328D01*
X49813629Y-68100329D01*
X49887496Y-68149686D01*
X49887500Y-68149689D01*
X49950311Y-68212500D01*
X49950313Y-68212503D01*
X49950314Y-68212504D01*
X49999671Y-68286371D01*
X49999672Y-68286374D01*
X50006066Y-68295943D01*
X50021612Y-68314885D01*
X50040554Y-68330430D01*
X50062165Y-68341981D01*
X50085614Y-68349094D01*
X50110000Y-68351496D01*
X50134387Y-68349094D01*
X50157836Y-68341981D01*
X50179447Y-68330430D01*
X50198389Y-68314884D01*
X50213934Y-68295943D01*
X50220328Y-68286374D01*
X50220329Y-68286371D01*
X50269686Y-68212504D01*
X50269687Y-68212503D01*
X50269689Y-68212500D01*
X50332500Y-68149689D01*
X50332504Y-68149686D01*
X50406371Y-68100329D01*
X50406374Y-68100328D01*
X50406375Y-68100327D01*
X50488448Y-68066331D01*
X50575579Y-68049000D01*
X50664421Y-68049000D01*
X50751552Y-68066331D01*
X50833625Y-68100327D01*
X50833626Y-68100328D01*
X50833629Y-68100329D01*
X50907496Y-68149686D01*
X50907500Y-68149689D01*
X50970311Y-68212500D01*
X50970313Y-68212503D01*
X50970314Y-68212504D01*
X51019671Y-68286371D01*
X51019672Y-68286374D01*
X51026066Y-68295943D01*
X51041612Y-68314885D01*
X51060554Y-68330430D01*
X51082165Y-68341981D01*
X51105614Y-68349094D01*
X51130000Y-68351496D01*
X51154387Y-68349094D01*
X51177836Y-68341981D01*
X51199447Y-68330430D01*
X51218389Y-68314884D01*
X51233934Y-68295943D01*
X51240328Y-68286374D01*
X51240329Y-68286371D01*
X51289686Y-68212504D01*
X51289687Y-68212503D01*
X51289689Y-68212500D01*
X51352500Y-68149689D01*
X51352504Y-68149686D01*
X51426371Y-68100329D01*
X51426374Y-68100328D01*
X51426375Y-68100327D01*
X51508448Y-68066331D01*
X51595579Y-68049000D01*
X51684421Y-68049000D01*
X51771552Y-68066331D01*
X51853625Y-68100327D01*
X51853626Y-68100328D01*
X51853629Y-68100329D01*
X51927496Y-68149686D01*
X51927500Y-68149689D01*
X51990311Y-68212500D01*
X51990313Y-68212503D01*
X51990314Y-68212504D01*
X52039671Y-68286371D01*
X52039672Y-68286374D01*
X52039673Y-68286375D01*
X52073669Y-68368448D01*
X52091000Y-68455579D01*
X52091000Y-68544421D01*
X52073669Y-68631552D01*
X52043636Y-68704057D01*
X52039671Y-68713629D01*
X51990314Y-68787496D01*
X51990311Y-68787500D01*
X51927500Y-68850311D01*
X51927497Y-68850313D01*
X51927496Y-68850314D01*
X51853629Y-68899671D01*
X51853626Y-68899672D01*
X51853625Y-68899673D01*
X51771552Y-68933669D01*
X51684421Y-68951000D01*
X51595579Y-68951000D01*
X51508448Y-68933669D01*
X51426375Y-68899673D01*
X51426374Y-68899672D01*
X51426371Y-68899671D01*
X51352504Y-68850314D01*
X51352503Y-68850313D01*
X51352500Y-68850311D01*
X51289689Y-68787500D01*
X51289686Y-68787496D01*
X51240329Y-68713629D01*
X51240327Y-68713625D01*
X51233934Y-68704057D01*
X51218388Y-68685115D01*
X51199446Y-68669570D01*
X51177835Y-68658019D01*
X51154386Y-68650906D01*
X51130000Y-68648504D01*
X51105613Y-68650906D01*
X51082164Y-68658019D01*
X51060553Y-68669570D01*
X51041611Y-68685116D01*
X51026066Y-68704057D01*
X51019673Y-68713625D01*
X51019671Y-68713629D01*
X50970314Y-68787496D01*
X50970311Y-68787500D01*
X50907500Y-68850311D01*
X50907497Y-68850313D01*
X50907496Y-68850314D01*
X50833629Y-68899671D01*
X50833626Y-68899672D01*
X50833625Y-68899673D01*
X50751552Y-68933669D01*
X50664421Y-68951000D01*
X50575579Y-68951000D01*
X50488448Y-68933669D01*
X50406375Y-68899673D01*
X50406374Y-68899672D01*
X50406371Y-68899671D01*
X50332504Y-68850314D01*
X50332503Y-68850313D01*
X50332500Y-68850311D01*
X50269689Y-68787500D01*
X50269686Y-68787496D01*
X50220329Y-68713629D01*
X50220327Y-68713625D01*
X50213934Y-68704057D01*
X50198388Y-68685115D01*
X50179446Y-68669570D01*
X50157835Y-68658019D01*
X50134386Y-68650906D01*
X50110000Y-68648504D01*
X50085613Y-68650906D01*
X50062164Y-68658019D01*
X50040553Y-68669570D01*
X50021611Y-68685116D01*
X50006066Y-68704057D01*
X49999673Y-68713625D01*
X49999671Y-68713629D01*
X49950314Y-68787496D01*
X49950311Y-68787500D01*
X49887500Y-68850311D01*
X49887497Y-68850313D01*
X49887496Y-68850314D01*
X49813629Y-68899671D01*
X49813626Y-68899672D01*
X49813625Y-68899673D01*
X49731552Y-68933669D01*
X49644421Y-68951000D01*
X49555579Y-68951000D01*
X49468448Y-68933669D01*
X49386375Y-68899673D01*
X49386374Y-68899672D01*
X49386371Y-68899671D01*
X49312504Y-68850314D01*
X49312503Y-68850313D01*
X49312500Y-68850311D01*
X49249689Y-68787500D01*
X49249686Y-68787496D01*
X49200329Y-68713629D01*
X49200327Y-68713625D01*
X49193934Y-68704057D01*
X49178388Y-68685115D01*
X49159446Y-68669570D01*
X49137835Y-68658019D01*
X49114386Y-68650906D01*
X49090000Y-68648504D01*
X49065613Y-68650906D01*
X49042164Y-68658019D01*
X49020553Y-68669570D01*
X49001611Y-68685116D01*
X48986066Y-68704057D01*
X48979673Y-68713625D01*
X48979671Y-68713629D01*
X48930314Y-68787496D01*
X48930311Y-68787500D01*
X48867500Y-68850311D01*
X48867497Y-68850313D01*
X48867496Y-68850314D01*
X48793629Y-68899671D01*
X48793626Y-68899672D01*
X48793625Y-68899673D01*
X48711552Y-68933669D01*
X48624421Y-68951000D01*
X48535579Y-68951000D01*
X48448448Y-68933669D01*
X48366375Y-68899673D01*
X48366374Y-68899672D01*
X48366371Y-68899671D01*
X48292504Y-68850314D01*
X48292503Y-68850313D01*
X48292500Y-68850311D01*
X48229689Y-68787500D01*
X48229686Y-68787496D01*
X48180329Y-68713629D01*
X48180327Y-68713625D01*
X48173934Y-68704057D01*
X48158388Y-68685115D01*
X48139446Y-68669570D01*
X48117835Y-68658019D01*
X48094386Y-68650906D01*
X48070000Y-68648504D01*
X48045613Y-68650906D01*
X48022164Y-68658019D01*
X48000553Y-68669570D01*
X47981611Y-68685116D01*
X47966066Y-68704057D01*
X47959673Y-68713625D01*
X47959671Y-68713629D01*
X47910314Y-68787496D01*
X47910311Y-68787500D01*
X47847500Y-68850311D01*
X47847497Y-68850313D01*
X47847496Y-68850314D01*
X47773629Y-68899671D01*
X47773626Y-68899672D01*
X47773625Y-68899673D01*
X47691552Y-68933669D01*
X47604421Y-68951000D01*
X47515579Y-68951000D01*
X47428448Y-68933669D01*
X47346375Y-68899673D01*
X47346374Y-68899672D01*
X47346371Y-68899671D01*
X47272504Y-68850314D01*
X47272503Y-68850313D01*
X47272500Y-68850311D01*
X47209689Y-68787500D01*
X47209686Y-68787496D01*
X47160329Y-68713629D01*
X47160327Y-68713625D01*
X47153934Y-68704057D01*
X47138388Y-68685115D01*
X47119446Y-68669570D01*
X47097835Y-68658019D01*
X47074386Y-68650906D01*
X47050000Y-68648504D01*
X47025613Y-68650906D01*
X47002164Y-68658019D01*
X46980553Y-68669570D01*
X46961611Y-68685116D01*
X46946066Y-68704057D01*
X46939673Y-68713625D01*
X46939671Y-68713629D01*
X46890314Y-68787496D01*
X46890311Y-68787500D01*
X46827500Y-68850311D01*
X46827497Y-68850313D01*
X46827496Y-68850314D01*
X46753629Y-68899671D01*
X46753626Y-68899672D01*
X46753625Y-68899673D01*
X46671552Y-68933669D01*
X46584421Y-68951000D01*
X46495579Y-68951000D01*
X46408448Y-68933669D01*
X46326375Y-68899673D01*
X46326374Y-68899672D01*
X46326371Y-68899671D01*
X46252504Y-68850314D01*
X46252503Y-68850313D01*
X46252500Y-68850311D01*
X46189689Y-68787500D01*
X46189686Y-68787496D01*
X46140329Y-68713629D01*
X46140327Y-68713625D01*
X46133934Y-68704057D01*
X46118388Y-68685115D01*
X46099446Y-68669570D01*
X46077835Y-68658019D01*
X46054386Y-68650906D01*
X46030000Y-68648504D01*
X46005613Y-68650906D01*
X45982164Y-68658019D01*
X45960553Y-68669570D01*
X45941611Y-68685116D01*
X45926066Y-68704057D01*
X45919673Y-68713625D01*
X45919671Y-68713629D01*
X45870314Y-68787496D01*
X45870311Y-68787500D01*
X45807500Y-68850311D01*
X45807497Y-68850313D01*
X45807496Y-68850314D01*
X45733629Y-68899671D01*
X45733626Y-68899672D01*
X45733625Y-68899673D01*
X45651552Y-68933669D01*
X45564421Y-68951000D01*
X45475579Y-68951000D01*
X45388448Y-68933669D01*
X45306375Y-68899673D01*
X45306374Y-68899672D01*
X45306371Y-68899671D01*
X45232504Y-68850314D01*
X45232503Y-68850313D01*
X45232500Y-68850311D01*
X45169689Y-68787500D01*
X45169686Y-68787496D01*
X45120329Y-68713629D01*
X45120327Y-68713625D01*
X45113934Y-68704057D01*
X45098388Y-68685115D01*
X45079446Y-68669570D01*
X45057835Y-68658019D01*
X45034386Y-68650906D01*
X45010000Y-68648504D01*
X44985613Y-68650906D01*
X44962164Y-68658019D01*
X44940553Y-68669570D01*
X44921611Y-68685116D01*
X44906066Y-68704057D01*
X44899673Y-68713625D01*
X44899671Y-68713629D01*
X44850314Y-68787496D01*
X44850311Y-68787500D01*
X44787500Y-68850311D01*
X44787497Y-68850313D01*
X44787496Y-68850314D01*
X44713629Y-68899671D01*
X44713626Y-68899672D01*
X44713625Y-68899673D01*
X44631552Y-68933669D01*
X44544421Y-68951000D01*
X44455579Y-68951000D01*
X44368448Y-68933669D01*
X44286375Y-68899673D01*
X44286374Y-68899672D01*
X44286371Y-68899671D01*
X44212504Y-68850314D01*
X44212503Y-68850313D01*
X44212500Y-68850311D01*
X44149689Y-68787500D01*
X44149686Y-68787496D01*
X44100329Y-68713629D01*
X44096364Y-68704057D01*
X44066331Y-68631552D01*
X44049000Y-68544421D01*
X44049000Y-68455579D01*
X44066331Y-68368448D01*
X44100327Y-68286375D01*
X44100328Y-68286374D01*
X44100329Y-68286371D01*
X44149686Y-68212504D01*
X44149687Y-68212503D01*
X44149689Y-68212500D01*
X44212500Y-68149689D01*
X44212504Y-68149686D01*
X44286371Y-68100329D01*
X44286374Y-68100328D01*
X44286375Y-68100327D01*
X44368448Y-68066331D01*
X44455579Y-68049000D01*
X44544421Y-68049000D01*
X44631552Y-68066331D01*
X44631552Y-68066331D01*
G37*
G36*
X23689890Y-59874017D02*
X23808361Y-59923089D01*
X23914992Y-59994338D01*
X24005662Y-60085008D01*
X24076911Y-60191639D01*
X24125983Y-60310110D01*
X24151000Y-60435881D01*
X24151000Y-60564119D01*
X24125983Y-60689890D01*
X24076911Y-60808361D01*
X24005662Y-60914992D01*
X23914992Y-61005662D01*
X23808361Y-61076911D01*
X23689890Y-61125983D01*
X23564119Y-61151000D01*
X23435881Y-61151000D01*
X23310110Y-61125983D01*
X23191639Y-61076911D01*
X23085008Y-61005662D01*
X22994338Y-60914992D01*
X22923089Y-60808361D01*
X22874017Y-60689890D01*
X22849000Y-60564119D01*
X22849000Y-60435881D01*
X22874017Y-60310110D01*
X22923089Y-60191639D01*
X22994338Y-60085008D01*
X23085008Y-59994338D01*
X23191639Y-59923089D01*
X23310110Y-59874017D01*
X23435881Y-59849000D01*
X23564119Y-59849000D01*
X23689890Y-59874017D01*
X23689890Y-59874017D01*
G37*
G36*
X23689890Y-58074017D02*
X23808361Y-58123089D01*
X23914992Y-58194338D01*
X24005662Y-58285008D01*
X24076911Y-58391639D01*
X24125983Y-58510110D01*
X24151000Y-58635881D01*
X24151000Y-58764119D01*
X24125983Y-58889890D01*
X24076911Y-59008361D01*
X24005662Y-59114992D01*
X23914992Y-59205662D01*
X23808361Y-59276911D01*
X23689890Y-59325983D01*
X23564119Y-59351000D01*
X23435881Y-59351000D01*
X23310110Y-59325983D01*
X23191639Y-59276911D01*
X23085008Y-59205662D01*
X22994338Y-59114992D01*
X22923089Y-59008361D01*
X22874017Y-58889890D01*
X22849000Y-58764119D01*
X22849000Y-58635881D01*
X22874017Y-58510110D01*
X22923089Y-58391639D01*
X22994338Y-58285008D01*
X23085008Y-58194338D01*
X23191639Y-58123089D01*
X23310110Y-58074017D01*
X23435881Y-58049000D01*
X23564119Y-58049000D01*
X23689890Y-58074017D01*
X23689890Y-58074017D01*
G37*
G36*
X44631552Y-38066331D02*
X44713625Y-38100327D01*
X44713626Y-38100328D01*
X44713629Y-38100329D01*
X44787496Y-38149686D01*
X44787500Y-38149689D01*
X44850311Y-38212500D01*
X44850313Y-38212503D01*
X44850314Y-38212504D01*
X44899671Y-38286371D01*
X44899672Y-38286374D01*
X44906066Y-38295943D01*
X44921612Y-38314885D01*
X44940554Y-38330430D01*
X44962165Y-38341981D01*
X44985614Y-38349094D01*
X45010000Y-38351496D01*
X45034387Y-38349094D01*
X45057836Y-38341981D01*
X45079447Y-38330430D01*
X45098389Y-38314884D01*
X45113934Y-38295943D01*
X45120328Y-38286374D01*
X45120329Y-38286371D01*
X45169686Y-38212504D01*
X45169687Y-38212503D01*
X45169689Y-38212500D01*
X45232500Y-38149689D01*
X45232504Y-38149686D01*
X45306371Y-38100329D01*
X45306374Y-38100328D01*
X45306375Y-38100327D01*
X45388448Y-38066331D01*
X45475579Y-38049000D01*
X45564421Y-38049000D01*
X45651552Y-38066331D01*
X45733625Y-38100327D01*
X45733626Y-38100328D01*
X45733629Y-38100329D01*
X45807496Y-38149686D01*
X45807500Y-38149689D01*
X45870311Y-38212500D01*
X45870313Y-38212503D01*
X45870314Y-38212504D01*
X45919671Y-38286371D01*
X45919672Y-38286374D01*
X45926066Y-38295943D01*
X45941612Y-38314885D01*
X45960554Y-38330430D01*
X45982165Y-38341981D01*
X46005614Y-38349094D01*
X46030000Y-38351496D01*
X46054387Y-38349094D01*
X46077836Y-38341981D01*
X46099447Y-38330430D01*
X46118389Y-38314884D01*
X46133934Y-38295943D01*
X46140328Y-38286374D01*
X46140329Y-38286371D01*
X46189686Y-38212504D01*
X46189687Y-38212503D01*
X46189689Y-38212500D01*
X46252500Y-38149689D01*
X46252504Y-38149686D01*
X46326371Y-38100329D01*
X46326374Y-38100328D01*
X46326375Y-38100327D01*
X46408448Y-38066331D01*
X46495579Y-38049000D01*
X46584421Y-38049000D01*
X46671552Y-38066331D01*
X46753625Y-38100327D01*
X46753626Y-38100328D01*
X46753629Y-38100329D01*
X46827496Y-38149686D01*
X46827500Y-38149689D01*
X46890311Y-38212500D01*
X46890313Y-38212503D01*
X46890314Y-38212504D01*
X46939671Y-38286371D01*
X46939672Y-38286374D01*
X46946066Y-38295943D01*
X46961612Y-38314885D01*
X46980554Y-38330430D01*
X47002165Y-38341981D01*
X47025614Y-38349094D01*
X47050000Y-38351496D01*
X47074387Y-38349094D01*
X47097836Y-38341981D01*
X47119447Y-38330430D01*
X47138389Y-38314884D01*
X47153934Y-38295943D01*
X47160328Y-38286374D01*
X47160329Y-38286371D01*
X47209686Y-38212504D01*
X47209687Y-38212503D01*
X47209689Y-38212500D01*
X47272500Y-38149689D01*
X47272504Y-38149686D01*
X47346371Y-38100329D01*
X47346374Y-38100328D01*
X47346375Y-38100327D01*
X47428448Y-38066331D01*
X47515579Y-38049000D01*
X47604421Y-38049000D01*
X47691552Y-38066331D01*
X47773625Y-38100327D01*
X47773626Y-38100328D01*
X47773629Y-38100329D01*
X47847496Y-38149686D01*
X47847500Y-38149689D01*
X47910311Y-38212500D01*
X47910313Y-38212503D01*
X47910314Y-38212504D01*
X47959671Y-38286371D01*
X47959672Y-38286374D01*
X47966066Y-38295943D01*
X47981612Y-38314885D01*
X48000554Y-38330430D01*
X48022165Y-38341981D01*
X48045614Y-38349094D01*
X48070000Y-38351496D01*
X48094387Y-38349094D01*
X48117836Y-38341981D01*
X48139447Y-38330430D01*
X48158389Y-38314884D01*
X48173934Y-38295943D01*
X48180328Y-38286374D01*
X48180329Y-38286371D01*
X48229686Y-38212504D01*
X48229687Y-38212503D01*
X48229689Y-38212500D01*
X48292500Y-38149689D01*
X48292504Y-38149686D01*
X48366371Y-38100329D01*
X48366374Y-38100328D01*
X48366375Y-38100327D01*
X48448448Y-38066331D01*
X48535579Y-38049000D01*
X48624421Y-38049000D01*
X48711552Y-38066331D01*
X48793625Y-38100327D01*
X48793626Y-38100328D01*
X48793629Y-38100329D01*
X48867496Y-38149686D01*
X48867500Y-38149689D01*
X48930311Y-38212500D01*
X48930313Y-38212503D01*
X48930314Y-38212504D01*
X48979671Y-38286371D01*
X48979672Y-38286374D01*
X48986066Y-38295943D01*
X49001612Y-38314885D01*
X49020554Y-38330430D01*
X49042165Y-38341981D01*
X49065614Y-38349094D01*
X49090000Y-38351496D01*
X49114387Y-38349094D01*
X49137836Y-38341981D01*
X49159447Y-38330430D01*
X49178389Y-38314884D01*
X49193934Y-38295943D01*
X49200328Y-38286374D01*
X49200329Y-38286371D01*
X49249686Y-38212504D01*
X49249687Y-38212503D01*
X49249689Y-38212500D01*
X49312500Y-38149689D01*
X49312504Y-38149686D01*
X49386371Y-38100329D01*
X49386374Y-38100328D01*
X49386375Y-38100327D01*
X49468448Y-38066331D01*
X49555579Y-38049000D01*
X49644421Y-38049000D01*
X49731552Y-38066331D01*
X49813625Y-38100327D01*
X49813626Y-38100328D01*
X49813629Y-38100329D01*
X49887496Y-38149686D01*
X49887500Y-38149689D01*
X49950311Y-38212500D01*
X49950313Y-38212503D01*
X49950314Y-38212504D01*
X49999671Y-38286371D01*
X49999672Y-38286374D01*
X50006066Y-38295943D01*
X50021612Y-38314885D01*
X50040554Y-38330430D01*
X50062165Y-38341981D01*
X50085614Y-38349094D01*
X50110000Y-38351496D01*
X50134387Y-38349094D01*
X50157836Y-38341981D01*
X50179447Y-38330430D01*
X50198389Y-38314884D01*
X50213934Y-38295943D01*
X50220328Y-38286374D01*
X50220329Y-38286371D01*
X50269686Y-38212504D01*
X50269687Y-38212503D01*
X50269689Y-38212500D01*
X50332500Y-38149689D01*
X50332504Y-38149686D01*
X50406371Y-38100329D01*
X50406374Y-38100328D01*
X50406375Y-38100327D01*
X50488448Y-38066331D01*
X50575579Y-38049000D01*
X50664421Y-38049000D01*
X50751552Y-38066331D01*
X50833625Y-38100327D01*
X50833626Y-38100328D01*
X50833629Y-38100329D01*
X50907496Y-38149686D01*
X50907500Y-38149689D01*
X50970311Y-38212500D01*
X50970313Y-38212503D01*
X50970314Y-38212504D01*
X51019671Y-38286371D01*
X51019672Y-38286374D01*
X51026066Y-38295943D01*
X51041612Y-38314885D01*
X51060554Y-38330430D01*
X51082165Y-38341981D01*
X51105614Y-38349094D01*
X51130000Y-38351496D01*
X51154387Y-38349094D01*
X51177836Y-38341981D01*
X51199447Y-38330430D01*
X51218389Y-38314884D01*
X51233934Y-38295943D01*
X51240328Y-38286374D01*
X51240329Y-38286371D01*
X51289686Y-38212504D01*
X51289687Y-38212503D01*
X51289689Y-38212500D01*
X51352500Y-38149689D01*
X51352504Y-38149686D01*
X51426371Y-38100329D01*
X51426374Y-38100328D01*
X51426375Y-38100327D01*
X51508448Y-38066331D01*
X51595579Y-38049000D01*
X51684421Y-38049000D01*
X51771552Y-38066331D01*
X51853625Y-38100327D01*
X51853626Y-38100328D01*
X51853629Y-38100329D01*
X51927496Y-38149686D01*
X51927500Y-38149689D01*
X51990311Y-38212500D01*
X51990313Y-38212503D01*
X51990314Y-38212504D01*
X52039671Y-38286371D01*
X52039672Y-38286374D01*
X52039673Y-38286375D01*
X52073669Y-38368448D01*
X52091000Y-38455579D01*
X52091000Y-38544421D01*
X52073669Y-38631552D01*
X52043636Y-38704057D01*
X52039671Y-38713629D01*
X51990314Y-38787496D01*
X51990311Y-38787500D01*
X51927500Y-38850311D01*
X51927497Y-38850313D01*
X51927496Y-38850314D01*
X51853629Y-38899671D01*
X51853626Y-38899672D01*
X51853625Y-38899673D01*
X51771552Y-38933669D01*
X51684421Y-38951000D01*
X51595579Y-38951000D01*
X51508448Y-38933669D01*
X51426375Y-38899673D01*
X51426374Y-38899672D01*
X51426371Y-38899671D01*
X51352504Y-38850314D01*
X51352503Y-38850313D01*
X51352500Y-38850311D01*
X51289689Y-38787500D01*
X51289686Y-38787496D01*
X51240329Y-38713629D01*
X51240327Y-38713625D01*
X51233934Y-38704057D01*
X51218388Y-38685115D01*
X51199446Y-38669570D01*
X51177835Y-38658019D01*
X51154386Y-38650906D01*
X51130000Y-38648504D01*
X51105613Y-38650906D01*
X51082164Y-38658019D01*
X51060553Y-38669570D01*
X51041611Y-38685116D01*
X51026066Y-38704057D01*
X51019673Y-38713625D01*
X51019671Y-38713629D01*
X50970314Y-38787496D01*
X50970311Y-38787500D01*
X50907500Y-38850311D01*
X50907497Y-38850313D01*
X50907496Y-38850314D01*
X50833629Y-38899671D01*
X50833626Y-38899672D01*
X50833625Y-38899673D01*
X50751552Y-38933669D01*
X50664421Y-38951000D01*
X50575579Y-38951000D01*
X50488448Y-38933669D01*
X50406375Y-38899673D01*
X50406374Y-38899672D01*
X50406371Y-38899671D01*
X50332504Y-38850314D01*
X50332503Y-38850313D01*
X50332500Y-38850311D01*
X50269689Y-38787500D01*
X50269686Y-38787496D01*
X50220329Y-38713629D01*
X50220327Y-38713625D01*
X50213934Y-38704057D01*
X50198388Y-38685115D01*
X50179446Y-38669570D01*
X50157835Y-38658019D01*
X50134386Y-38650906D01*
X50110000Y-38648504D01*
X50085613Y-38650906D01*
X50062164Y-38658019D01*
X50040553Y-38669570D01*
X50021611Y-38685116D01*
X50006066Y-38704057D01*
X49999673Y-38713625D01*
X49999671Y-38713629D01*
X49950314Y-38787496D01*
X49950311Y-38787500D01*
X49887500Y-38850311D01*
X49887497Y-38850313D01*
X49887496Y-38850314D01*
X49813629Y-38899671D01*
X49813626Y-38899672D01*
X49813625Y-38899673D01*
X49731552Y-38933669D01*
X49644421Y-38951000D01*
X49555579Y-38951000D01*
X49468448Y-38933669D01*
X49386375Y-38899673D01*
X49386374Y-38899672D01*
X49386371Y-38899671D01*
X49312504Y-38850314D01*
X49312503Y-38850313D01*
X49312500Y-38850311D01*
X49249689Y-38787500D01*
X49249686Y-38787496D01*
X49200329Y-38713629D01*
X49200327Y-38713625D01*
X49193934Y-38704057D01*
X49178388Y-38685115D01*
X49159446Y-38669570D01*
X49137835Y-38658019D01*
X49114386Y-38650906D01*
X49090000Y-38648504D01*
X49065613Y-38650906D01*
X49042164Y-38658019D01*
X49020553Y-38669570D01*
X49001611Y-38685116D01*
X48986066Y-38704057D01*
X48979673Y-38713625D01*
X48979671Y-38713629D01*
X48930314Y-38787496D01*
X48930311Y-38787500D01*
X48867500Y-38850311D01*
X48867497Y-38850313D01*
X48867496Y-38850314D01*
X48793629Y-38899671D01*
X48793626Y-38899672D01*
X48793625Y-38899673D01*
X48711552Y-38933669D01*
X48624421Y-38951000D01*
X48535579Y-38951000D01*
X48448448Y-38933669D01*
X48366375Y-38899673D01*
X48366374Y-38899672D01*
X48366371Y-38899671D01*
X48292504Y-38850314D01*
X48292503Y-38850313D01*
X48292500Y-38850311D01*
X48229689Y-38787500D01*
X48229686Y-38787496D01*
X48180329Y-38713629D01*
X48180327Y-38713625D01*
X48173934Y-38704057D01*
X48158388Y-38685115D01*
X48139446Y-38669570D01*
X48117835Y-38658019D01*
X48094386Y-38650906D01*
X48070000Y-38648504D01*
X48045613Y-38650906D01*
X48022164Y-38658019D01*
X48000553Y-38669570D01*
X47981611Y-38685116D01*
X47966066Y-38704057D01*
X47959673Y-38713625D01*
X47959671Y-38713629D01*
X47910314Y-38787496D01*
X47910311Y-38787500D01*
X47847500Y-38850311D01*
X47847497Y-38850313D01*
X47847496Y-38850314D01*
X47773629Y-38899671D01*
X47773626Y-38899672D01*
X47773625Y-38899673D01*
X47691552Y-38933669D01*
X47604421Y-38951000D01*
X47515579Y-38951000D01*
X47428448Y-38933669D01*
X47346375Y-38899673D01*
X47346374Y-38899672D01*
X47346371Y-38899671D01*
X47272504Y-38850314D01*
X47272503Y-38850313D01*
X47272500Y-38850311D01*
X47209689Y-38787500D01*
X47209686Y-38787496D01*
X47160329Y-38713629D01*
X47160327Y-38713625D01*
X47153934Y-38704057D01*
X47138388Y-38685115D01*
X47119446Y-38669570D01*
X47097835Y-38658019D01*
X47074386Y-38650906D01*
X47050000Y-38648504D01*
X47025613Y-38650906D01*
X47002164Y-38658019D01*
X46980553Y-38669570D01*
X46961611Y-38685116D01*
X46946066Y-38704057D01*
X46939673Y-38713625D01*
X46939671Y-38713629D01*
X46890314Y-38787496D01*
X46890311Y-38787500D01*
X46827500Y-38850311D01*
X46827497Y-38850313D01*
X46827496Y-38850314D01*
X46753629Y-38899671D01*
X46753626Y-38899672D01*
X46753625Y-38899673D01*
X46671552Y-38933669D01*
X46584421Y-38951000D01*
X46495579Y-38951000D01*
X46408448Y-38933669D01*
X46326375Y-38899673D01*
X46326374Y-38899672D01*
X46326371Y-38899671D01*
X46252504Y-38850314D01*
X46252503Y-38850313D01*
X46252500Y-38850311D01*
X46189689Y-38787500D01*
X46189686Y-38787496D01*
X46140329Y-38713629D01*
X46140327Y-38713625D01*
X46133934Y-38704057D01*
X46118388Y-38685115D01*
X46099446Y-38669570D01*
X46077835Y-38658019D01*
X46054386Y-38650906D01*
X46030000Y-38648504D01*
X46005613Y-38650906D01*
X45982164Y-38658019D01*
X45960553Y-38669570D01*
X45941611Y-38685116D01*
X45926066Y-38704057D01*
X45919673Y-38713625D01*
X45919671Y-38713629D01*
X45870314Y-38787496D01*
X45870311Y-38787500D01*
X45807500Y-38850311D01*
X45807497Y-38850313D01*
X45807496Y-38850314D01*
X45733629Y-38899671D01*
X45733626Y-38899672D01*
X45733625Y-38899673D01*
X45651552Y-38933669D01*
X45564421Y-38951000D01*
X45475579Y-38951000D01*
X45388448Y-38933669D01*
X45306375Y-38899673D01*
X45306374Y-38899672D01*
X45306371Y-38899671D01*
X45232504Y-38850314D01*
X45232503Y-38850313D01*
X45232500Y-38850311D01*
X45169689Y-38787500D01*
X45169686Y-38787496D01*
X45120329Y-38713629D01*
X45120327Y-38713625D01*
X45113934Y-38704057D01*
X45098388Y-38685115D01*
X45079446Y-38669570D01*
X45057835Y-38658019D01*
X45034386Y-38650906D01*
X45010000Y-38648504D01*
X44985613Y-38650906D01*
X44962164Y-38658019D01*
X44940553Y-38669570D01*
X44921611Y-38685116D01*
X44906066Y-38704057D01*
X44899673Y-38713625D01*
X44899671Y-38713629D01*
X44850314Y-38787496D01*
X44850311Y-38787500D01*
X44787500Y-38850311D01*
X44787497Y-38850313D01*
X44787496Y-38850314D01*
X44713629Y-38899671D01*
X44713626Y-38899672D01*
X44713625Y-38899673D01*
X44631552Y-38933669D01*
X44544421Y-38951000D01*
X44455579Y-38951000D01*
X44368448Y-38933669D01*
X44286375Y-38899673D01*
X44286374Y-38899672D01*
X44286371Y-38899671D01*
X44212504Y-38850314D01*
X44212503Y-38850313D01*
X44212500Y-38850311D01*
X44149689Y-38787500D01*
X44149686Y-38787496D01*
X44100329Y-38713629D01*
X44096364Y-38704057D01*
X44066331Y-38631552D01*
X44049000Y-38544421D01*
X44049000Y-38455579D01*
X44066331Y-38368448D01*
X44100327Y-38286375D01*
X44100328Y-38286374D01*
X44100329Y-38286371D01*
X44149686Y-38212504D01*
X44149687Y-38212503D01*
X44149689Y-38212500D01*
X44212500Y-38149689D01*
X44212504Y-38149686D01*
X44286371Y-38100329D01*
X44286374Y-38100328D01*
X44286375Y-38100327D01*
X44368448Y-38066331D01*
X44455579Y-38049000D01*
X44544421Y-38049000D01*
X44631552Y-38066331D01*
X44631552Y-38066331D01*
G37*
G36*
X23689890Y-29874017D02*
X23808361Y-29923089D01*
X23914992Y-29994338D01*
X24005662Y-30085008D01*
X24076911Y-30191639D01*
X24125983Y-30310110D01*
X24151000Y-30435881D01*
X24151000Y-30564119D01*
X24125983Y-30689890D01*
X24076911Y-30808361D01*
X24005662Y-30914992D01*
X23914992Y-31005662D01*
X23808361Y-31076911D01*
X23689890Y-31125983D01*
X23564119Y-31151000D01*
X23435881Y-31151000D01*
X23310110Y-31125983D01*
X23191639Y-31076911D01*
X23085008Y-31005662D01*
X22994338Y-30914992D01*
X22923089Y-30808361D01*
X22874017Y-30689890D01*
X22849000Y-30564119D01*
X22849000Y-30435881D01*
X22874017Y-30310110D01*
X22923089Y-30191639D01*
X22994338Y-30085008D01*
X23085008Y-29994338D01*
X23191639Y-29923089D01*
X23310110Y-29874017D01*
X23435881Y-29849000D01*
X23564119Y-29849000D01*
X23689890Y-29874017D01*
X23689890Y-29874017D01*
G37*
G36*
X23689890Y-28074017D02*
X23808361Y-28123089D01*
X23914992Y-28194338D01*
X24005662Y-28285008D01*
X24076911Y-28391639D01*
X24125983Y-28510110D01*
X24151000Y-28635881D01*
X24151000Y-28764119D01*
X24125983Y-28889890D01*
X24076911Y-29008361D01*
X24005662Y-29114992D01*
X23914992Y-29205662D01*
X23808361Y-29276911D01*
X23689890Y-29325983D01*
X23564119Y-29351000D01*
X23435881Y-29351000D01*
X23310110Y-29325983D01*
X23191639Y-29276911D01*
X23085008Y-29205662D01*
X22994338Y-29114992D01*
X22923089Y-29008361D01*
X22874017Y-28889890D01*
X22849000Y-28764119D01*
X22849000Y-28635881D01*
X22874017Y-28510110D01*
X22923089Y-28391639D01*
X22994338Y-28285008D01*
X23085008Y-28194338D01*
X23191639Y-28123089D01*
X23310110Y-28074017D01*
X23435881Y-28049000D01*
X23564119Y-28049000D01*
X23689890Y-28074017D01*
X23689890Y-28074017D01*
G37*
M02*
