M48
;DRILL file {KiCad 5.0.1} date Sun 03 Mar 2019 08:36:01 AM PST
;FORMAT={-:-/ absolute / metric / decimal}
FMAT,2
METRIC,TZ
T1C0.510
T2C0.511
T3C0.900
T4C1.780
T5C3.000
T6C1.710
T7C3.510
%
G90
G05
M71
T1
X44.5Y-38.5
X45.52Y-38.5
X46.54Y-38.5
X47.56Y-38.5
X48.58Y-38.5
X49.6Y-38.5
X50.62Y-38.5
X51.64Y-38.5
X44.5Y-68.5
X45.52Y-68.5
X46.54Y-68.5
X47.56Y-68.5
X48.58Y-68.5
X49.6Y-68.5
X50.62Y-68.5
X51.64Y-68.5
X44.5Y-128.5
X45.52Y-128.5
X46.54Y-128.5
X47.56Y-128.5
X48.58Y-128.5
X49.6Y-128.5
X50.62Y-128.5
X51.64Y-128.5
X44.5Y-98.5
X45.52Y-98.5
X46.54Y-98.5
X47.56Y-98.5
X48.58Y-98.5
X49.6Y-98.5
X50.62Y-98.5
X51.64Y-98.5
T2
X23.5Y-58.7
X23.5Y-60.5
X23.5Y-118.7
X23.5Y-120.5
X23.5Y-88.7
X23.5Y-90.5
X23.5Y-28.7
X23.5Y-30.5
T3
X20.34Y-153.39
X21.61Y-150.85
X22.88Y-153.39
X24.15Y-150.85
X25.42Y-153.39
X26.69Y-150.85
X27.96Y-153.39
X29.23Y-150.85
X20.34Y-173.39
X21.61Y-170.85
X22.88Y-173.39
X24.15Y-170.85
X25.42Y-173.39
X26.69Y-170.85
X27.96Y-173.39
X29.23Y-170.85
X58.77Y-173.39
X60.04Y-170.85
X61.31Y-173.39
X62.58Y-170.85
X63.85Y-173.39
X65.12Y-170.85
X66.39Y-173.39
X67.66Y-170.85
X58.785Y-153.515
X60.055Y-150.975
X61.325Y-153.515
X62.595Y-150.975
X63.865Y-153.515
X65.135Y-150.975
X66.405Y-153.515
X67.675Y-150.975
T4
X24.Y-184.5
X24.Y-187.68
X31.49Y-184.5
X31.49Y-187.68
T5
X19.25Y-184.25
X36.24Y-184.25
T6
X16.91Y-141.45
X32.66Y-141.45
X16.91Y-161.45
X32.66Y-161.45
X55.34Y-161.45
X71.09Y-161.45
X55.355Y-141.575
X71.105Y-141.575
T7
X19.07Y-144.5
X30.5Y-144.5
X19.07Y-164.5
X30.5Y-164.5
X57.5Y-164.5
X68.93Y-164.5
X57.515Y-144.625
X68.945Y-144.625
T0
M30
