G04 #@! TF.GenerationSoftware,KiCad,Pcbnew,5.0.1*
G04 #@! TF.CreationDate,2019-03-03T01:18:44-08:00*
G04 #@! TF.ProjectId,piboard,7069626F6172642E6B696361645F7063,rev?*
G04 #@! TF.SameCoordinates,Original*
G04 #@! TF.FileFunction,Copper,L2,Bot,Signal*
G04 #@! TF.FilePolarity,Positive*
%FSLAX46Y46*%
G04 Gerber Fmt 4.6, Leading zero omitted, Abs format (unit mm)*
G04 Created by KiCad (PCBNEW 5.0.1) date Sun 03 Mar 2019 01:18:44 AM PST*
%MOMM*%
%LPD*%
G01*
G04 APERTURE LIST*
G04 #@! TA.AperFunction,ComponentPad*
%ADD10C,0.800000*%
G04 #@! TD*
G04 #@! TA.AperFunction,ComponentPad*
%ADD11C,1.500000*%
G04 #@! TD*
G04 #@! TA.AperFunction,ComponentPad*
%ADD12R,3.000000X3.000000*%
G04 #@! TD*
G04 #@! TA.AperFunction,ComponentPad*
%ADD13C,3.000000*%
G04 #@! TD*
G04 #@! TA.AperFunction,ComponentPad*
%ADD14C,4.000000*%
G04 #@! TD*
G04 #@! TA.AperFunction,ComponentPad*
%ADD15C,1.200000*%
G04 #@! TD*
G04 #@! TA.AperFunction,Conductor*
%ADD16C,0.500000*%
G04 #@! TD*
G04 #@! TA.AperFunction,Conductor*
%ADD17C,2.000000*%
G04 #@! TD*
G04 #@! TA.AperFunction,Conductor*
%ADD18C,1.000000*%
G04 #@! TD*
G04 APERTURE END LIST*
D10*
G04 #@! TO.P,J6,8*
G04 #@! TO.N,Net-(J5-Pad8)*
X44500000Y-68500000D03*
G04 #@! TO.P,J6,7*
G04 #@! TO.N,Net-(J5-Pad7)*
X45520000Y-68500000D03*
G04 #@! TO.P,J6,6*
G04 #@! TO.N,Net-(J5-Pad6)*
X46540000Y-68500000D03*
G04 #@! TO.P,J6,5*
G04 #@! TO.N,Net-(J5-Pad5)*
X47560000Y-68500000D03*
G04 #@! TO.P,J6,4*
G04 #@! TO.N,Net-(J5-Pad4)*
X48580000Y-68500000D03*
G04 #@! TO.P,J6,3*
G04 #@! TO.N,Net-(J5-Pad3)*
X49600000Y-68500000D03*
G04 #@! TO.P,J6,2*
G04 #@! TO.N,Net-(J5-Pad2)*
X50620000Y-68500000D03*
G04 #@! TO.P,J6,1*
G04 #@! TO.N,Net-(J5-Pad1)*
X51640000Y-68500000D03*
G04 #@! TD*
D11*
G04 #@! TO.P,J3,8*
G04 #@! TO.N,Net-(J3-Pad8)*
X20340000Y-173390000D03*
G04 #@! TO.P,J3,7*
G04 #@! TO.N,Net-(J3-Pad7)*
X21610000Y-170850000D03*
G04 #@! TO.P,J3,6*
G04 #@! TO.N,Net-(J3-Pad6)*
X22880000Y-173390000D03*
G04 #@! TO.P,J3,5*
G04 #@! TO.N,Net-(J3-Pad5)*
X24150000Y-170850000D03*
G04 #@! TO.P,J3,4*
G04 #@! TO.N,Net-(J3-Pad4)*
X25420000Y-173390000D03*
G04 #@! TO.P,J3,3*
G04 #@! TO.N,Net-(J3-Pad3)*
X26690000Y-170850000D03*
G04 #@! TO.P,J3,2*
G04 #@! TO.N,Net-(J3-Pad2)*
X27960000Y-173390000D03*
G04 #@! TO.P,J3,1*
G04 #@! TO.N,Net-(J3-Pad1)*
X29230000Y-170850000D03*
G04 #@! TD*
G04 #@! TO.P,J1,8*
G04 #@! TO.N,Net-(J1-Pad8)*
X20340000Y-153390000D03*
G04 #@! TO.P,J1,7*
G04 #@! TO.N,Net-(J1-Pad7)*
X21610000Y-150850000D03*
G04 #@! TO.P,J1,6*
G04 #@! TO.N,Net-(J1-Pad6)*
X22880000Y-153390000D03*
G04 #@! TO.P,J1,5*
G04 #@! TO.N,Net-(J1-Pad5)*
X24150000Y-150850000D03*
G04 #@! TO.P,J1,4*
G04 #@! TO.N,Net-(J1-Pad4)*
X25420000Y-153390000D03*
G04 #@! TO.P,J1,3*
G04 #@! TO.N,Net-(J1-Pad3)*
X26690000Y-150850000D03*
G04 #@! TO.P,J1,2*
G04 #@! TO.N,Net-(J1-Pad2)*
X27960000Y-153390000D03*
G04 #@! TO.P,J1,1*
G04 #@! TO.N,Net-(J1-Pad1)*
X29230000Y-150850000D03*
G04 #@! TD*
G04 #@! TO.P,J5,1*
G04 #@! TO.N,Net-(J5-Pad1)*
X67675000Y-150975001D03*
G04 #@! TO.P,J5,2*
G04 #@! TO.N,Net-(J5-Pad2)*
X66405000Y-153515001D03*
G04 #@! TO.P,J5,3*
G04 #@! TO.N,Net-(J5-Pad3)*
X65135000Y-150975001D03*
G04 #@! TO.P,J5,4*
G04 #@! TO.N,Net-(J5-Pad4)*
X63865000Y-153515001D03*
G04 #@! TO.P,J5,5*
G04 #@! TO.N,Net-(J5-Pad5)*
X62595000Y-150975001D03*
G04 #@! TO.P,J5,6*
G04 #@! TO.N,Net-(J5-Pad6)*
X61325000Y-153515001D03*
G04 #@! TO.P,J5,7*
G04 #@! TO.N,Net-(J5-Pad7)*
X60055000Y-150975001D03*
G04 #@! TO.P,J5,8*
G04 #@! TO.N,Net-(J5-Pad8)*
X58785000Y-153515001D03*
G04 #@! TD*
D10*
G04 #@! TO.P,J8,8*
G04 #@! TO.N,Net-(J7-Pad8)*
X44500000Y-128500000D03*
G04 #@! TO.P,J8,7*
G04 #@! TO.N,Net-(J7-Pad7)*
X45520000Y-128500000D03*
G04 #@! TO.P,J8,6*
G04 #@! TO.N,Net-(J7-Pad6)*
X46540000Y-128500000D03*
G04 #@! TO.P,J8,5*
G04 #@! TO.N,Net-(J7-Pad5)*
X47560000Y-128500000D03*
G04 #@! TO.P,J8,4*
G04 #@! TO.N,Net-(J7-Pad4)*
X48580000Y-128500000D03*
G04 #@! TO.P,J8,3*
G04 #@! TO.N,Net-(J7-Pad3)*
X49600000Y-128500000D03*
G04 #@! TO.P,J8,2*
G04 #@! TO.N,Net-(J7-Pad2)*
X50620000Y-128500000D03*
G04 #@! TO.P,J8,1*
G04 #@! TO.N,Net-(J7-Pad1)*
X51640000Y-128500000D03*
G04 #@! TD*
G04 #@! TO.P,J2,8*
G04 #@! TO.N,Net-(J1-Pad8)*
X44500000Y-38500000D03*
G04 #@! TO.P,J2,7*
G04 #@! TO.N,Net-(J1-Pad7)*
X45520000Y-38500000D03*
G04 #@! TO.P,J2,6*
G04 #@! TO.N,Net-(J1-Pad6)*
X46540000Y-38500000D03*
G04 #@! TO.P,J2,5*
G04 #@! TO.N,Net-(J1-Pad5)*
X47560000Y-38500000D03*
G04 #@! TO.P,J2,4*
G04 #@! TO.N,Net-(J1-Pad4)*
X48580000Y-38500000D03*
G04 #@! TO.P,J2,3*
G04 #@! TO.N,Net-(J1-Pad3)*
X49600000Y-38500000D03*
G04 #@! TO.P,J2,2*
G04 #@! TO.N,Net-(J1-Pad2)*
X50620000Y-38500000D03*
G04 #@! TO.P,J2,1*
G04 #@! TO.N,Net-(J1-Pad1)*
X51640000Y-38500000D03*
G04 #@! TD*
G04 #@! TO.P,J4,1*
G04 #@! TO.N,Net-(J3-Pad1)*
X51640000Y-98500000D03*
G04 #@! TO.P,J4,2*
G04 #@! TO.N,Net-(J3-Pad2)*
X50620000Y-98500000D03*
G04 #@! TO.P,J4,3*
G04 #@! TO.N,Net-(J3-Pad3)*
X49600000Y-98500000D03*
G04 #@! TO.P,J4,4*
G04 #@! TO.N,Net-(J3-Pad4)*
X48580000Y-98500000D03*
G04 #@! TO.P,J4,5*
G04 #@! TO.N,Net-(J3-Pad5)*
X47560000Y-98500000D03*
G04 #@! TO.P,J4,6*
G04 #@! TO.N,Net-(J3-Pad6)*
X46540000Y-98500000D03*
G04 #@! TO.P,J4,7*
G04 #@! TO.N,Net-(J3-Pad7)*
X45520000Y-98500000D03*
G04 #@! TO.P,J4,8*
G04 #@! TO.N,Net-(J3-Pad8)*
X44500000Y-98500000D03*
G04 #@! TD*
D12*
G04 #@! TO.P,J13,1*
G04 #@! TO.N,Net-(J13-Pad1)*
X24000000Y-184500000D03*
X24000000Y-187680000D03*
D13*
G04 #@! TO.P,J13,2*
G04 #@! TO.N,Net-(J13-Pad2)*
X31490000Y-184500000D03*
X31490000Y-187680000D03*
D14*
G04 #@! TO.P,J13,*
G04 #@! TO.N,*
X19250000Y-184250000D03*
X36240000Y-184250000D03*
G04 #@! TD*
D11*
G04 #@! TO.P,J7,8*
G04 #@! TO.N,Net-(J7-Pad8)*
X58770000Y-173390000D03*
G04 #@! TO.P,J7,7*
G04 #@! TO.N,Net-(J7-Pad7)*
X60040000Y-170850000D03*
G04 #@! TO.P,J7,6*
G04 #@! TO.N,Net-(J7-Pad6)*
X61310000Y-173390000D03*
G04 #@! TO.P,J7,5*
G04 #@! TO.N,Net-(J7-Pad5)*
X62580000Y-170850000D03*
G04 #@! TO.P,J7,4*
G04 #@! TO.N,Net-(J7-Pad4)*
X63850000Y-173390000D03*
G04 #@! TO.P,J7,3*
G04 #@! TO.N,Net-(J7-Pad3)*
X65120000Y-170850000D03*
G04 #@! TO.P,J7,2*
G04 #@! TO.N,Net-(J7-Pad2)*
X66390000Y-173390000D03*
G04 #@! TO.P,J7,1*
G04 #@! TO.N,Net-(J7-Pad1)*
X67660000Y-170850000D03*
G04 #@! TD*
D15*
G04 #@! TO.P,J14,2*
G04 #@! TO.N,Net-(J13-Pad1)*
X23500000Y-58700000D03*
G04 #@! TO.P,J14,1*
G04 #@! TO.N,Net-(J13-Pad2)*
X23500000Y-60500000D03*
G04 #@! TD*
G04 #@! TO.P,J15,1*
G04 #@! TO.N,Net-(J13-Pad2)*
X23500000Y-90500000D03*
G04 #@! TO.P,J15,2*
G04 #@! TO.N,Net-(J13-Pad1)*
X23500000Y-88700000D03*
G04 #@! TD*
G04 #@! TO.P,J16,2*
G04 #@! TO.N,Net-(J13-Pad1)*
X23500000Y-118700000D03*
G04 #@! TO.P,J16,1*
G04 #@! TO.N,Net-(J13-Pad2)*
X23500000Y-120500000D03*
G04 #@! TD*
G04 #@! TO.P,J17,1*
G04 #@! TO.N,Net-(J13-Pad2)*
X23500000Y-30500000D03*
G04 #@! TO.P,J17,2*
G04 #@! TO.N,Net-(J13-Pad1)*
X23500000Y-28700000D03*
G04 #@! TD*
D16*
G04 #@! TO.N,Net-(J7-Pad1)*
X67660000Y-170850000D02*
X67660000Y-168336990D01*
X51640000Y-152316990D02*
X51640000Y-128500000D01*
X67660000Y-168336990D02*
X51640000Y-152316990D01*
G04 #@! TO.N,Net-(J7-Pad2)*
X66390000Y-173390000D02*
X66390000Y-168390000D01*
X50620000Y-152620000D02*
X50620000Y-128500000D01*
X66390000Y-168390000D02*
X50620000Y-152620000D01*
G04 #@! TO.N,Net-(J7-Pad3)*
X65120000Y-170850000D02*
X65120000Y-168620000D01*
X49600000Y-153100000D02*
X49600000Y-128500000D01*
X65120000Y-168620000D02*
X49600000Y-153100000D01*
G04 #@! TO.N,Net-(J7-Pad4)*
X63850000Y-173390000D02*
X63850000Y-170350000D01*
X63850000Y-170350000D02*
X61000000Y-167500000D01*
X61000000Y-167500000D02*
X55500000Y-167500000D01*
X48580000Y-160580000D02*
X48580000Y-128500000D01*
X55500000Y-167500000D02*
X48580000Y-160580000D01*
G04 #@! TO.N,Net-(J7-Pad5)*
X62580000Y-170580000D02*
X60500000Y-168500000D01*
X60500000Y-168500000D02*
X55500000Y-168500000D01*
X55500000Y-168500000D02*
X47500000Y-160500000D01*
X47500000Y-160500000D02*
X47500000Y-128560000D01*
G04 #@! TO.N,Net-(J7-Pad6)*
X61310000Y-173390000D02*
X61310000Y-170310000D01*
X61310000Y-170310000D02*
X60500000Y-169500000D01*
X60500000Y-169500000D02*
X55000000Y-169500000D01*
X46540000Y-161040000D02*
X46540000Y-128500000D01*
X55000000Y-169500000D02*
X46540000Y-161040000D01*
G04 #@! TO.N,Net-(J7-Pad7)*
X60040000Y-170850000D02*
X54850000Y-170850000D01*
X45520000Y-161520000D02*
X45520000Y-128500000D01*
X54850000Y-170850000D02*
X45520000Y-161520000D01*
G04 #@! TO.N,Net-(J7-Pad8)*
X58770000Y-173390000D02*
X56390000Y-173390000D01*
X44500000Y-161500000D02*
X44500000Y-128500000D01*
X56390000Y-173390000D02*
X44500000Y-161500000D01*
G04 #@! TO.N,Net-(J5-Pad8)*
X44500000Y-90000000D02*
X44500000Y-68500000D01*
X60000000Y-105500000D02*
X44500000Y-90000000D01*
X60000000Y-145500000D02*
X60000000Y-105500000D01*
X58785000Y-153515001D02*
X58785000Y-146715000D01*
X58785000Y-146715000D02*
X60000000Y-145500000D01*
G04 #@! TO.N,Net-(J5-Pad7)*
X45500000Y-89500000D02*
X45500000Y-68520000D01*
X61000000Y-105000000D02*
X45500000Y-89500000D01*
X60055000Y-150975001D02*
X60055000Y-146445000D01*
X61000000Y-145500000D02*
X61000000Y-105000000D01*
X60055000Y-146445000D02*
X61000000Y-145500000D01*
G04 #@! TO.N,Net-(J5-Pad6)*
X46540000Y-89540000D02*
X46540000Y-68500000D01*
X62000000Y-105000000D02*
X46540000Y-89540000D01*
X62000000Y-145500000D02*
X62000000Y-105000000D01*
X61325000Y-153515001D02*
X61325000Y-146175000D01*
X61325000Y-146175000D02*
X62000000Y-145500000D01*
G04 #@! TO.N,Net-(J5-Pad5)*
X63000000Y-105000000D02*
X47560000Y-89560000D01*
X47560000Y-89560000D02*
X47560000Y-68500000D01*
X63000000Y-150000000D02*
X63000000Y-105000000D01*
X62595000Y-150975001D02*
X62595000Y-150405000D01*
X62595000Y-150405000D02*
X63000000Y-150000000D01*
G04 #@! TO.N,Net-(J5-Pad4)*
X48580000Y-89580000D02*
X48580000Y-68500000D01*
X64000000Y-105000000D02*
X48580000Y-89580000D01*
X64000000Y-150000000D02*
X64000000Y-105000000D01*
X63865000Y-153515001D02*
X63865000Y-150135000D01*
X63865000Y-150135000D02*
X64000000Y-150000000D01*
G04 #@! TO.N,Net-(J5-Pad3)*
X49600000Y-89600000D02*
X49600000Y-68500000D01*
X65000000Y-150000000D02*
X65000000Y-105000000D01*
X65000000Y-105000000D02*
X49600000Y-89600000D01*
X65135000Y-150975001D02*
X65135000Y-150135000D01*
X65135000Y-150135000D02*
X65000000Y-150000000D01*
G04 #@! TO.N,Net-(J5-Pad2)*
X50620000Y-89620000D02*
X50620000Y-68500000D01*
X66000000Y-105000000D02*
X50620000Y-89620000D01*
X66405000Y-153515001D02*
X66405000Y-149905000D01*
X66000000Y-149500000D02*
X66000000Y-105000000D01*
X66405000Y-149905000D02*
X66000000Y-149500000D01*
G04 #@! TO.N,Net-(J5-Pad1)*
X66703010Y-104703010D02*
X51640000Y-89640000D01*
X66703010Y-149203010D02*
X66703010Y-104703010D01*
X51640000Y-89640000D02*
X51640000Y-68500000D01*
X67675000Y-150975001D02*
X67675000Y-150175000D01*
X67675000Y-150175000D02*
X66703010Y-149203010D01*
G04 #@! TO.N,Net-(J3-Pad1)*
X51500000Y-120000000D02*
X51500000Y-98640000D01*
X29230000Y-169270000D02*
X34500000Y-164000000D01*
X40500000Y-151500000D02*
X40500000Y-131000000D01*
X29230000Y-170850000D02*
X29230000Y-169270000D01*
X34500000Y-157500000D02*
X40500000Y-151500000D01*
X34500000Y-164000000D02*
X34500000Y-157500000D01*
X40500000Y-131000000D02*
X51500000Y-120000000D01*
G04 #@! TO.N,Net-(J3-Pad2)*
X39500000Y-131000000D02*
X50620000Y-119880000D01*
X27960000Y-173390000D02*
X27960000Y-163040000D01*
X50620000Y-119880000D02*
X50620000Y-98500000D01*
X39500000Y-151500000D02*
X39500000Y-131000000D01*
X27960000Y-163040000D02*
X39500000Y-151500000D01*
G04 #@! TO.N,Net-(J3-Pad3)*
X49600000Y-119900000D02*
X49600000Y-98500000D01*
X38500000Y-131000000D02*
X49600000Y-119900000D01*
X38500000Y-151000000D02*
X38500000Y-131000000D01*
X26690000Y-170850000D02*
X26690000Y-162810000D01*
X26690000Y-162810000D02*
X38500000Y-151000000D01*
G04 #@! TO.N,Net-(J3-Pad4)*
X48580000Y-119920000D02*
X48580000Y-98500000D01*
X37703010Y-150500000D02*
X37703010Y-130796990D01*
X25420000Y-173390000D02*
X25420000Y-162783010D01*
X37703010Y-130796990D02*
X48580000Y-119920000D01*
X25420000Y-162783010D02*
X37703010Y-150500000D01*
G04 #@! TO.N,Net-(J3-Pad5)*
X24150000Y-167350000D02*
X24500000Y-167000000D01*
X24500000Y-162500000D02*
X37000000Y-150000000D01*
X37000000Y-150000000D02*
X37000000Y-130376990D01*
X47560000Y-119816990D02*
X47560000Y-98500000D01*
X24150000Y-170850000D02*
X24150000Y-167350000D01*
X24500000Y-167000000D02*
X24500000Y-162500000D01*
X37000000Y-130376990D02*
X47560000Y-119816990D01*
G04 #@! TO.N,Net-(J3-Pad6)*
X46540000Y-119842784D02*
X46540000Y-98500000D01*
X22880000Y-167620000D02*
X23500000Y-167000000D01*
X23500000Y-167000000D02*
X23500000Y-162203010D01*
X23500000Y-162203010D02*
X36000000Y-149703010D01*
X22880000Y-173390000D02*
X22880000Y-167620000D01*
X36000000Y-130382784D02*
X46540000Y-119842784D01*
X36000000Y-149703010D02*
X36000000Y-130382784D01*
G04 #@! TO.N,Net-(J3-Pad7)*
X45520000Y-119480000D02*
X45520000Y-98500000D01*
X21610000Y-167390000D02*
X22500000Y-166500000D01*
X21610000Y-170850000D02*
X21610000Y-167390000D01*
X22500000Y-166500000D02*
X22500000Y-162000000D01*
X22500000Y-162000000D02*
X35000000Y-149500000D01*
X35000000Y-130000000D02*
X45520000Y-119480000D01*
X35000000Y-149500000D02*
X35000000Y-130000000D01*
G04 #@! TO.N,Net-(J3-Pad8)*
X44500000Y-119500000D02*
X44500000Y-98500000D01*
X34000000Y-130000000D02*
X44500000Y-119500000D01*
X19500000Y-172550000D02*
X19500000Y-168000000D01*
X20340000Y-173390000D02*
X19500000Y-172550000D01*
X19500000Y-168000000D02*
X21500000Y-166000000D01*
X21500000Y-166000000D02*
X21500000Y-162000000D01*
X21500000Y-162000000D02*
X34000000Y-149500000D01*
X34000000Y-149500000D02*
X34000000Y-130000000D01*
G04 #@! TO.N,Net-(J1-Pad8)*
X44500000Y-56500000D02*
X44500000Y-38500000D01*
X20340000Y-153390000D02*
X20340000Y-149660000D01*
X21296990Y-148703010D02*
X21296990Y-126703010D01*
X21296990Y-126703010D02*
X35500000Y-112500000D01*
X35500000Y-112500000D02*
X35500000Y-65500000D01*
X20340000Y-149660000D02*
X21296990Y-148703010D01*
X35500000Y-65500000D02*
X44500000Y-56500000D01*
G04 #@! TO.N,Net-(J1-Pad7)*
X45520000Y-56980000D02*
X45520000Y-38500000D01*
X22000000Y-149500000D02*
X22000000Y-127296990D01*
X22000000Y-127296990D02*
X36500000Y-112796990D01*
X36500000Y-112796990D02*
X36500000Y-66000000D01*
X21610000Y-149890000D02*
X22000000Y-149500000D01*
X21610000Y-150850000D02*
X21610000Y-149890000D01*
X36500000Y-66000000D02*
X45520000Y-56980000D01*
G04 #@! TO.N,Net-(J1-Pad6)*
X46540000Y-57316990D02*
X46540000Y-38500000D01*
X22880000Y-153390000D02*
X22880000Y-149620000D01*
X22880000Y-149620000D02*
X23000000Y-149500000D01*
X23000000Y-149500000D02*
X23000000Y-127500000D01*
X23000000Y-127500000D02*
X37500000Y-113000000D01*
X37500000Y-113000000D02*
X37500000Y-66356990D01*
X37500000Y-66356990D02*
X46540000Y-57316990D01*
G04 #@! TO.N,Net-(J1-Pad5)*
X47560000Y-57440000D02*
X47560000Y-38500000D01*
X24000000Y-149500000D02*
X24000000Y-128000000D01*
X24150000Y-150850000D02*
X24150000Y-149650000D01*
X24000000Y-128000000D02*
X38500000Y-113500000D01*
X24150000Y-149650000D02*
X24000000Y-149500000D01*
X38500000Y-66500000D02*
X47560000Y-57440000D01*
X38500000Y-113500000D02*
X38500000Y-66500000D01*
G04 #@! TO.N,Net-(J1-Pad4)*
X48580000Y-57920000D02*
X48580000Y-38500000D01*
X25420000Y-146080000D02*
X25000000Y-145660000D01*
X25420000Y-153390000D02*
X25420000Y-146080000D01*
X25000000Y-145660000D02*
X25000000Y-128000000D01*
X25000000Y-128000000D02*
X39296990Y-113703010D01*
X39296990Y-113703010D02*
X39296990Y-67203010D01*
X39296990Y-67203010D02*
X48580000Y-57920000D01*
G04 #@! TO.N,Net-(J1-Pad3)*
X26690000Y-146190000D02*
X26000000Y-145500000D01*
X40000000Y-114000000D02*
X40000000Y-67916990D01*
X26690000Y-150850000D02*
X26690000Y-146190000D01*
X49600000Y-58316990D02*
X49600000Y-38500000D01*
X26000000Y-145500000D02*
X26000000Y-128000000D01*
X40000000Y-67916990D02*
X49600000Y-58316990D01*
X26000000Y-128000000D02*
X40000000Y-114000000D01*
G04 #@! TO.N,Net-(J1-Pad2)*
X50620000Y-58380000D02*
X50620000Y-38500000D01*
X27960000Y-146460000D02*
X27000000Y-145500000D01*
X41000000Y-114000000D02*
X41000000Y-68000000D01*
X27960000Y-153390000D02*
X27960000Y-146460000D01*
X27000000Y-128000000D02*
X41000000Y-114000000D01*
X27000000Y-145500000D02*
X27000000Y-128000000D01*
X41000000Y-68000000D02*
X50620000Y-58380000D01*
G04 #@! TO.N,Net-(J1-Pad1)*
X51640000Y-58860000D02*
X51640000Y-38500000D01*
X42000000Y-68500000D02*
X51640000Y-58860000D01*
X28000000Y-128000000D02*
X42000000Y-114000000D01*
X29230000Y-150850000D02*
X29230000Y-146497842D01*
X28000000Y-145267842D02*
X28000000Y-128000000D01*
X42000000Y-114000000D02*
X42000000Y-68500000D01*
X29230000Y-146497842D02*
X28000000Y-145267842D01*
D17*
G04 #@! TO.N,Net-(J13-Pad1)*
X24000000Y-184000000D02*
X14500000Y-174500000D01*
X14500000Y-31000000D02*
X14500000Y-29000000D01*
D18*
X14700000Y-118700000D02*
X14500000Y-118500000D01*
X23500000Y-118700000D02*
X14700000Y-118700000D01*
D17*
X14500000Y-174500000D02*
X14500000Y-118500000D01*
D18*
X14700000Y-88700000D02*
X14500000Y-88500000D01*
X23500000Y-88700000D02*
X14700000Y-88700000D01*
D17*
X14500000Y-118500000D02*
X14500000Y-88500000D01*
D18*
X14800000Y-58700000D02*
X14500000Y-59000000D01*
D17*
X14500000Y-88500000D02*
X14500000Y-59000000D01*
D18*
X23500000Y-58700000D02*
X14800000Y-58700000D01*
D17*
X14500000Y-59000000D02*
X14500000Y-31000000D01*
D18*
X14800000Y-28700000D02*
X14500000Y-29000000D01*
X23500000Y-28700000D02*
X14800000Y-28700000D01*
G04 #@! TD*
M02*
